<?xml version="1.0" standalone="no"?>
<!DOCTYPE svg PUBLIC "-//W3C//DTD SVG 1.1//EN" "http://www.w3.org/Graphics/SVG/1.1/DTD/svg11.dtd" >
<svg>
<metadata>
Created by FontForge 20120731 at Thu Jan 26 09:46:41 2017
 By www-data
Copyright (c) 1992-97 Hewlett-Packard. All rights reserved.
</metadata>
<defs>
<font id="Helvetica-BoldOblique" horiz-adv-x="1139" >
  <font-face 
    font-family="Helvetica"
    font-weight="700"
    font-style="oblique"
    font-stretch="normal"
    units-per-em="2048"
    panose-1="2 11 7 4 2 2 2 9 2 4"
    ascent="1638"
    descent="-410"
    x-height="1088"
    cap-height="1470"
    bbox="-677 -729 2277 1974"
    underline-thickness="102"
    underline-position="-154"
    slope="-12"
    unicode-range="U+0020-FB01"
  />
<missing-glyph horiz-adv-x="669" 
d="M0 1274h569v-1274h-569v1274zM100 1174v-1074h369v1074h-369z" />
    <glyph glyph-name=".notdef" horiz-adv-x="669" 
d="M0 1274h569v-1274h-569v1274zM100 1174v-1074h369v1074h-369z" />
    <glyph glyph-name="glyph1" horiz-adv-x="0" 
 />
    <glyph glyph-name="space" unicode=" " horiz-adv-x="569" 
 />
    <glyph glyph-name="exclam" unicode="!" horiz-adv-x="682" 
d="M351 403l64 705l74 355h157h158l-74 -355l-228 -705h-76v0h-75zM252 289h302l-59 -289h-302z" />
    <glyph glyph-name="quotedbl" unicode="&#x22;" horiz-adv-x="971" 
d="M395 916l115 554h202l-115 -554h-202zM766 916l115 554h202l-115 -554h-202z" />
    <glyph glyph-name="numbersign" unicode="#" 
d="M862 1429l-139 -407h202l140 407h195l-139 -407h194l-64 -189h-195l-82 -240h195l-64 -189h-196l-139 -405h-195l139 405h-203l-139 -405h-195l139 405h-193l64 189h193l82 240h-193l64 189h194l140 407h195zM656 833l-81 -240h205l82 240h-206z" />
    <glyph glyph-name="dollar" unicode="$" 
d="M951 1591l-27 -129q186 -12 271 -110q72 -82 72 -221q0 -48 -9 -104v0h-260v0q19 118 -25 167q-29 32 -95 43l-82 -392q233 -71 314 -162q59 -67 60 -173q0 -46 -11 -97q-44 -212 -203 -331q-139 -105 -341 -119l-42 -200h-105l42 200q-212 13 -306 119q-66 79 -67 208
q1 69 19 152v0h277v0q-30 -134 13 -199q32 -48 108 -61l88 423q-219 65 -289 159q-47 63 -48 165q1 52 13 114q41 197 189 309q130 97 312 108l27 131h105zM773 1241q-68 -7 -117 -47q-59 -47 -76 -131q-18 -85 22 -129q27 -31 96 -57l76 365zM659 183q76 10 131 52
q74 56 94 156q17 79 -32 124q-32 29 -112 59z" />
    <glyph glyph-name="percent" unicode="%" horiz-adv-x="1821" 
d="M585 709q-132 0 -219 82t-87 207q0 16 2.5 39t6.5 42q32 157 163.5 266t288.5 109q132 0 218.5 -83t86.5 -209q0 -17 -2.5 -40.5t-6.5 -42.5q-32 -155 -164 -263q-130 -107 -287 -107v0zM697 1247q-71 0 -126 -47t-70 -120q-2 -9 -3 -20t-1 -20q0 -55 36.5 -89.5
t94.5 -34.5q71 0 125.5 46t69.5 118q2 10 3.5 21.5t1.5 20.5q-1 56 -37 90.5t-94 34.5v0zM424 -40l1124 1494h154l-1124 -1494h-154zM1390 -11q-132 0 -219.5 82t-87.5 207q0 16 2.5 39t6.5 42q32 157 163.5 266t288.5 109q132 0 218.5 -83t86.5 -209q0 -17 -2.5 -40.5
t-6.5 -42.5q-32 -155 -164 -263q-129 -107 -286 -107v0zM1501 527q-71 0 -126 -47t-70 -120q-2 -9 -3 -20t-1 -20q0 -55 36.5 -89.5t94.5 -34.5q71 0 125.5 46t69.5 118q2 10 3.5 21.5t1.5 20.5q-1 56 -37 90.5t-94 34.5v0z" />
    <glyph glyph-name="ampersand" unicode="&#x26;" horiz-adv-x="1479" 
d="M512 1124q32 154 160 248t305 94q164 0 244.5 -95t48.5 -250q-21 -98 -152 -221q-81 -78 -171 -128l159 -263l35 53q79 125 99 208h249q-30 -124 -140 -296q-60 -94 -120 -164l193 -310h-345l-71 112q-89 -59 -166 -94q-128 -55 -285 -55q-215 0 -316 124t-57 335
q30 147 161 258q89 74 232 141q0 6 -4 10q-43 73 -58 147.5t-1 145.5zM644 201q74 0 158 42q41 21 89 55l-71 115l-135 224q-47 -30 -90 -63q-113 -89 -128 -161q-20 -98 28 -155q47 -57 149 -57zM777 1147q-6 -30 2 -66.5t27 -69.5l44 -73q33 23 67 52q92 80 103 135
q13 59 -13.5 93.5t-83.5 34.5q-49 0 -94 -33q-43 -32 -52 -73z" />
    <glyph glyph-name="quotesingle" unicode="'" horiz-adv-x="487" 
d="M338 916l115 554h202l-115 -554h-202z" />
    <glyph glyph-name="parenleft" unicode="(" horiz-adv-x="682" 
d="M170 535q51 245 183.5 471.5t380.5 492.5h210q-198 -242 -310.5 -468.5t-168.5 -495.5q-56 -275 -38.5 -502t113.5 -463h-210q-135 262 -174 489q-37 227 14 476z" />
    <glyph glyph-name="parenright" unicode=")" horiz-adv-x="682" 
d="M723 534q-51 -245 -184 -472q-130 -226 -379 -492h-210q199 242 310.5 468.5t167.5 495.5q56 275 39 502t-113 463h210q136 -262 174 -489q37 -227 -15 -476z" />
    <glyph glyph-name="asterisk" unicode="*" horiz-adv-x="797" 
d="M790 1467l-62 -243v0l238 87l17 -163l-241 -62v0l109 -188l-154 -101l-86 204v0l-170 -204l-114 101l187 188v0l-215 62l85 163l202 -87v0l38 243h166z" />
    <glyph glyph-name="plus" unicode="+" horiz-adv-x="1196" 
d="M570 404h-402l47 226h402l83 402h226l-83 -402h402l-47 -226h-402l-83 -402h-226z" />
    <glyph glyph-name="comma" unicode="," horiz-adv-x="569" 
d="M164 149l31 149h155h154l-46 -225q-37 -182 -131.5 -280t-269.5 -138v0l22 108v0q109 33 164 105q37 48 63 132v0h-17h-155z" />
    <glyph glyph-name="hyphen" unicode="-" horiz-adv-x="682" 
d="M205 707h574l-55 -266h-574z" />
    <glyph glyph-name="period" unicode="." horiz-adv-x="569" 
d="M192 298h308l-61 -298h-308z" />
    <glyph glyph-name="slash" unicode="/" horiz-adv-x="569" 
d="M961 1511l-797 -1552h-239l797 1552h239z" />
    <glyph glyph-name="zero" unicode="0" 
d="M568 -38q-196 0 -294 104.5t-98 313.5q0 65 9 139.5t26 159.5q81 395 244 585t421 190q196 0 293 -105t97 -316q1 -66 -8.5 -142.5t-27.5 -163.5q-82 -390 -245 -578q-160 -187 -417 -187v0zM614 190q116 0 186.5 120.5t134.5 426.5q21 99 30 169t9 130q0 101 -34 145.5
t-112 44.5q-123 0 -189 -114t-133 -441q-21 -104 -30 -172.5t-9 -125.5q0 -99 34 -141t113 -42v0z" />
    <glyph glyph-name="one" unicode="1" 
d="M495 0l208 1008v0h-349l41 199q135 -5 253 59t201 188h237v0l-301 -1454v0h-145h-145v0z" />
    <glyph glyph-name="two" unicode="2" 
d="M1264 1091q0 -195 -120.5 -339t-426.5 -316q-161 -90 -246 -182v0h632l-52 -254h-998v0q39 193 161 332t391 300q208 123 289.5 216t81.5 207q0 73 -44.5 115.5t-121.5 42.5q-102 0 -167 -67.5t-93 -202.5v0h-283v0q53 240 208.5 375.5t376.5 135.5q194 0 304 -96
q109 -96 108 -267z" />
    <glyph glyph-name="three" unicode="3" 
d="M930 1032q3 12 4 26t2 25q0 64 -39 103.5t-103 39.5q-96 0 -160.5 -60t-93.5 -175v0h-262v0q29 199 189 331t373 132q185 0 288.5 -80.5t104.5 -222.5q0 -23 -3 -49.5t-8 -49.5q-31 -151 -185 -252l-50 -29v0l48 -28q115 -79 115 -218q0 -18 -2.5 -40.5t-6.5 -43.5
q-45 -216 -211 -348q-164 -131 -391 -131q-245 0 -345 117t-61 360v0h275v0q-20 -127 20 -188t143 -61q100 0 175 67.5t98 178.5q2 13 3.5 25t1.5 21q0 72 -57.5 111.5t-164.5 39.5h-71l43 208h52q118 0 189 49q71 48 90 142z" />
    <glyph glyph-name="four" unicode="4" 
d="M698 321h-575l26 125l26 125l718 886h162h163l-188 -908v0h164l-47 -228h-164v0l-66 -321h-285l66 321v0zM745 549v0l128 617v0v0l-474 -595l-18 -22v0h364z" />
    <glyph glyph-name="five" unicode="5" 
d="M1158 483q-49 -234 -226 -378q-175 -143 -415 -143q-194 0 -297 112.5t-89 312.5v0h289v0q0 -102 42 -149.5t133 -47.5q95 0 168 73t98 192q4 22 7 45.5t3 41.5q-1 84 -45.5 133t-120.5 49q-63 0 -124 -29q-59 -28 -95 -74l-254 16l271 792v0h800l-49 -241h-597v0
l-116 -315v0q142 78 280 79q156 0 253 -96.5t97 -251.5q-1 -26 -4 -60q-4 -33 -9 -61z" />
    <glyph glyph-name="six" unicode="6" 
d="M920 1454q185 0 278 -98t73 -272v0h-281v0q-4 70 -36 106.5t-91 36.5h-12q-129 1 -216 -124q-67 -96 -117 -279v0q143 118 305 118q170 0 266 -88.5t94 -245.5q1 -32 -3 -68.5t-12 -71.5q-45 -218 -219 -362q-171 -144 -388 -144q-247 0 -338 185q-50 100 -49 254
q-1 125 33 285q80 389 263 585q171 184 419 184zM448 460q-4 -17 -6 -38t-2 -35q0 -85 47.5 -141t119.5 -56q102 0 173.5 71.5t98.5 198.5q3 16 5 35.5t2 35.5q0 82 -47 132.5t-124 50.5q-92 0 -169 -73q-76 -72 -98 -181z" />
    <glyph glyph-name="seven" unicode="7" 
d="M256 0q95 340 306 655q199 294 462 520v0h-709l52 254h1024l-22 -110l-23 -111q-288 -241 -493 -556q-206 -314 -296 -652h-301z" />
    <glyph glyph-name="eight" unicode="8" 
d="M1015 779v0q28 -13 50 -28q111 -76 112 -219q-1 -21 -3.5 -46t-7.5 -51q-45 -213 -210 -343t-392 -130q-204 0 -313 87t-110 250q1 31 4.5 66t11.5 70q36 176 197 284q43 29 93 51v0l-23 14q-102 66 -103 191q0 18 2.5 38.5t6.5 40.5q37 180 186 290t356 110
q182 0 284 -80t102 -221q1 -23 -2 -49.5t-8 -49.5q-32 -151 -177 -244q-26 -17 -56 -31zM747 861q83 0 144.5 50t77.5 131q3 11 4 24t1 25q0 62 -41 98.5t-111 36.5q-83 0 -144 -50.5t-78 -133.5q-2 -11 -3 -24t-2 -24q0 -62 41 -98q41 -35 111 -35zM704 643
q-93 0 -163 -62.5t-92 -165.5q-3 -16 -5 -33.5t-2 -30.5q0 -75 45 -118t123 -43q94 0 164 62t90 163q4 17 6 34.5t2 30.5q-1 75 -45 119q-45 44 -123 44z" />
    <glyph glyph-name="nine" unicode="9" 
d="M513 -38q-185 0 -279 98t-74 272v0h281v0q4 -70 36.5 -106.5t91.5 -36.5h12q128 -1 215 124q68 97 118 279v0q-142 -118 -305 -118q-169 0 -264.5 91t-93.5 252q-1 34 3.5 73.5t12.5 76.5q44 214 213.5 350.5t391.5 136.5q247 0 336 -185q51 -100 50 -254
q0 -125 -33 -285q-81 -389 -263 -585q-171 -184 -419 -184zM982 951q5 21 7.5 43.5t2.5 40.5q-1 84 -46 133t-123 49q-102 0 -174 -70.5t-98 -195.5q-5 -24 -7.5 -46t-2.5 -41q0 -80 44.5 -121t130.5 -41q97 0 170 69q73 68 96 180z" />
    <glyph glyph-name="colon" unicode=":" horiz-adv-x="682" 
d="M249 298h308l-61 -298h-308zM404 1047h308l-61 -298h-308z" />
    <glyph glyph-name="semicolon" unicode=";" horiz-adv-x="682" 
d="M223 150l30 149h153h153l-46 -225q-36 -176 -133.5 -278.5t-264.5 -140.5v0l23 113v0q114 35 164 101q35 45 60 131v0h-17h-153zM409 1047h308l-61 -298h-308z" />
    <glyph glyph-name="less" unicode="&#x3c;" horiz-adv-x="1196" 
d="M168 424l20 93l19 93l1134 443l-46 -220l-810 -315v0l679 -317l-44 -220z" />
    <glyph glyph-name="equal" unicode="=" horiz-adv-x="1196" 
d="M166 407h1030l-47 -226h-1030zM258 854h1030l-46 -226h-1030z" />
    <glyph glyph-name="greater" unicode="&#x3e;" horiz-adv-x="1196" 
d="M1206 424l-1132 -443l44 220l811 317v0l-680 315l46 220l950 -443l-19 -93z" />
    <glyph glyph-name="question" unicode="?" horiz-adv-x="1251" 
d="M883 1248q-94 0 -157 -61t-97 -183v0h-291v0q35 215 201.5 351.5t393.5 136.5q242 0 353.5 -118.5t68.5 -328.5q-22 -104 -105.5 -195t-271.5 -213q-43 -28 -77.5 -85.5t-45.5 -120.5h-262q26 144 91.5 236.5t194.5 167.5q67 39 118 98t62 112q19 94 -28 149
q-47 54 -148 54zM549 286h290l-59 -286h-290z" />
    <glyph glyph-name="at" unicode="@" horiz-adv-x="1997" 
d="M1464 460q110 0 221 165t111 328q0 177 -127 284.5t-336 107.5q-307 0 -527.5 -227t-220.5 -543q-1 -206 139.5 -331t371.5 -125q135 0 268.5 49t216.5 129h176q-116 -153 -314.5 -247t-407.5 -94q-288 0 -471 175t-183 450q0 362 296 644.5t675 282.5q276 0 443.5 -143
t167.5 -379q-1 -268 -209.5 -487t-463.5 -219q-62 0 -81 54q-9 23 -6 53v0q-125 -107 -240 -107q-117 0 -192 73.5t-78 190.5q-1 45 14 108.5t38 119.5q70 161 213 268t290 107q163 0 203 -121l6 -18v0l47 110v0h180l-229 -533q-29 -66 -26.5 -95.5t35.5 -29.5zM1224 944
q-75 0 -153.5 -57.5t-112.5 -137.5q-19 -43 -30 -83q-9 -39 -8 -67q2 -53 35.5 -82.5t95.5 -29.5q81 0 157 60t119 159q48 114 21.5 176t-124.5 62z" />
    <glyph glyph-name="A" unicode="A" horiz-adv-x="1479" 
d="M41 0l841 1470h177h177l206 -1470v0h-167h-168v0l-34 308v0h-543v0l-164 -308v0h-162h-163v0zM983 1146l-320 -595v0h386v0l-66 595v0v0z" />
    <glyph glyph-name="B" unicode="B" horiz-adv-x="1479" 
d="M156 0l304 1470v0h153v0h570q183 0 280 -76t98 -219q-1 -26 -4 -55.5t-9 -59.5q-31 -149 -184 -240q-24 -15 -51 -27v0q31 -12 56 -30q111 -77 111 -222q0 -23 -3 -48.5t-8 -50.5q-43 -208 -212.5 -325t-427.5 -117h-520v0h-153v0zM713 1213l-66 -317v0h361
q107 0 166.5 38.5t76.5 118.5q2 13 3.5 24.5t1.5 24.5q0 58 -43 84.5t-137 26.5h-363v0zM595 645l-80 -388v0h353q128 0 199 47t91 145q4 17 6 31t1 26q0 70 -48 104.5t-145 34.5h-377v0z" />
    <glyph glyph-name="C" unicode="C" horiz-adv-x="1479" 
d="M1498 500v0q-86 -247 -282.5 -392t-445.5 -145q-258 0 -404.5 141.5t-146.5 392.5q1 50 7.5 111.5t19.5 121.5q74 357 297.5 567t531.5 210q280 0 416 -133q122 -119 122 -334l-2 -55v0h-307v0q-7 143 -68 201.5t-202 58.5q-171 0 -299 -139t-177 -375q-10 -46 -15 -93
t-5 -85q0 -154 75.5 -241t209.5 -87q122 0 223 75.5t145 199.5v0h307z" />
    <glyph glyph-name="D" unicode="D" horiz-adv-x="1479" 
d="M156 0l304 1470v0h153v0h373q295 0 447 -124t152 -365q-1 -50 -7 -106t-18 -114q-86 -411 -279 -586t-562 -175h-410v0h-153v0zM512 244v0h257q201 0 307 100t155 334q14 69 20.5 124.5t7.5 106.5q-1 161 -79.5 236.5t-245.5 75.5h-220v0z" />
    <glyph glyph-name="E" unicode="E" horiz-adv-x="1366" 
d="M156 0v0l304 1470v0h1085v0l-25 -131l-25 -131v0h-783v0l-64 -305v0h723l-27 -131l-27 -131v0h-723v0l-78 -379v0h817v0l-29 -131l-29 -131v0h-1119z" />
    <glyph glyph-name="F" unicode="F" horiz-adv-x="1251" 
d="M156 0l304 1470v0h1054v0l-25 -131l-25 -131v0h-752v0l-68 -328v0h642l-27 -131l-28 -131v0h-642v0l-127 -618h-153h-153z" />
    <glyph glyph-name="G" unicode="G" horiz-adv-x="1593" 
d="M783 -37q-263 0 -412.5 142.5t-149.5 394.5q0 50 7 111t19 119q74 357 312 567t570 210q279 0 416.5 -125.5t120.5 -367.5v0h-306v0q-5 114 -76.5 178t-192.5 64q-195 0 -338.5 -141t-192.5 -381q-10 -47 -15 -93t-6 -86q0 -163 87 -249t250 -86q172 0 303 139
q74 79 120 187v0h-341l51 248h612l-164 -790h-204l9 188v0l-20 -22q-196 -207 -459 -207z" />
    <glyph glyph-name="H" unicode="H" horiz-adv-x="1479" 
d="M145 0l304 1470v0h153h153v0l-116 -560v0h581v0l116 560v0h153h153v0l-304 -1470v0h-153h-153v0l134 648v0h-581v0l-134 -648v0h-153h-153v0z" />
    <glyph glyph-name="I" unicode="I" horiz-adv-x="569" 
d="M131 0l304 1470v0h153h153v0l-304 -1470v0h-153h-153v0z" />
    <glyph glyph-name="J" unicode="J" 
d="M962 1470v0h153h153v0l-212 -1023q-51 -246 -192 -365q-139 -119 -379 -119q-244 0 -331.5 127t-30.5 403l12 58h285l-12 -58q-32 -151 -4 -215.5t125 -64.5q99 0 146.5 50.5t74.5 183.5v0z" />
    <glyph glyph-name="K" unicode="K" horiz-adv-x="1479" 
d="M178 0l304 1470v0h153h153v0l-125 -605v0l699 605v0h197h197v0l-725 -611v0l447 -859v0h-198h-199v0l-311 641v0l-186 -158v0l-100 -483v0h-153h-153v0z" />
    <glyph glyph-name="L" unicode="L" horiz-adv-x="1251" 
d="M156 0v0l304 1470v0h153h153v0l-250 -1208v0h731v0l-29 -131l-29 -131v0h-1033z" />
    <glyph glyph-name="M" unicode="M" horiz-adv-x="1706" 
d="M427 0v0h-143h-143v0l304 1470v0h223h224v0l33 -1167v0v0l507 1167v0h223h224v0l-304 -1470v0h-143h-143v0l258 1247v0l-538 -1247h-151h-151l-22 1247v0z" />
    <glyph glyph-name="N" unicode="N" horiz-adv-x="1479" 
d="M427 0v0h-143h-143v0l304 1470v0h162h162v0l378 -1041v0v0l216 1041v0h143h143v0l-304 -1470h-152h-153l-395 1057v0v0z" />
    <glyph glyph-name="O" unicode="O" horiz-adv-x="1593" 
d="M793 -37q-269 0 -421.5 143t-152.5 397q0 50 6.5 110t18.5 117q74 357 308 567t560 210q269 0 421 -144.5t152 -400.5q-1 -50 -7.5 -111.5t-18.5 -120.5q-73 -353 -308 -560q-233 -207 -558 -207v0zM845 220q182 0 317.5 138t184.5 373q9 44 14 91t6 86q0 161 -82 251.5
t-227 90.5q-182 0 -317.5 -140t-184.5 -379q-9 -45 -14.5 -91t-5.5 -82q0 -159 82 -248.5t227 -89.5v0z" />
    <glyph glyph-name="P" unicode="P" horiz-adv-x="1366" 
d="M156 0l304 1470v0h153v0h506q191 0 292 -84.5t101 -243.5v-3q0 -31 -4 -67.5t-12 -74.5q-44 -210 -201 -338t-371 -128h-353v0l-109 -531v0h-153h-153v0zM625 788v0h295q116 0 182.5 52.5t89.5 161.5q4 20 6 36.5t2 31.5q0 78 -56 113.5t-179 35.5h-251v0z" />
    <glyph glyph-name="Q" unicode="Q" horiz-adv-x="1593" 
d="M1323 -113l-138 167v0q-176 -91 -392 -91q-269 0 -421.5 143t-152.5 397q0 50 6.5 110t18.5 117q74 357 308 567t560 210q269 0 421 -144.5t152 -400.5q-1 -50 -7.5 -111.5t-18.5 -120.5q-66 -321 -267 -521v0l127 -150zM897 404l188 164q-36 41 81 -96l48 -56v0
q94 127 133 315q9 44 14 91t6 86q0 161 -82 251.5t-227 90.5q-182 0 -317.5 -140t-184.5 -379q-9 -45 -14.5 -91t-5.5 -82q0 -159 82 -248.5t227 -89.5q94 0 174 36v0z" />
    <glyph glyph-name="R" unicode="R" horiz-adv-x="1479" 
d="M156 0l304 1470v0h153v0h612q174 0 272 -83t98 -230q0 -25 -3.5 -55.5t-9.5 -58.5q-38 -186 -189 -287q-47 -31 -104 -54v0q22 -9 39 -21q110 -75 78 -252l-42 -239q-13 -72 -6 -102t40 -48l-8 -39h-339q-9 27 -3.5 102.5t21.5 158.5l26 134q18 101 -28.5 144t-176.5 43
h-308v0l-120 -583v0h-153h-153v0zM633 827v0h379q113 0 176 45t83 139q4 20 6 36.5t2 32.5q0 74 -50 107.5t-160 33.5h-355v0z" />
    <glyph glyph-name="S" unicode="S" horiz-adv-x="1366" 
d="M1169 1029v0q0 126 -59 177.5t-203 51.5q-116 0 -191.5 -51.5t-94.5 -143.5q-15 -72 44 -108t264 -80q308 -67 399 -159q61 -62 61 -176q0 -55 -14 -121q-44 -214 -230 -335q-184 -121 -468 -121t-411 123q-101 98 -100 275q-1 45 6 95v0h294v0q-16 -124 48 -184t213 -60
q148 0 241.5 50t111.5 138q17 81 -34 119q-51 37 -231 76q-330 72 -429 163q-69 63 -69 180q0 48 12 106q45 218 221.5 340.5t444.5 122.5q258 0 377 -122q99 -100 100 -277l-5 -79v0h-298z" />
    <glyph glyph-name="T" unicode="T" horiz-adv-x="1251" 
d="M487 0l250 1208v0h-450v0l29 131l29 131v0h1199v0l-25 -131l-25 -131v0h-451v0l-250 -1208v0h-153h-153v0z" />
    <glyph glyph-name="U" unicode="U" horiz-adv-x="1479" 
d="M1434 484q-52 -250 -237 -386q-183 -135 -472 -135q-272 0 -399 138q-88 98 -88 249q0 62 15 134l204 986v0h156h156v0l-202 -976q-9 -41 -8 -75q-1 -75 37 -123q55 -71 179 -71q143 0 234.5 70t118.5 199l202 976v0h154h154v0z" />
    <glyph glyph-name="V" unicode="V" horiz-adv-x="1366" 
d="M352 1470v0h165h165v0l78 -1123v0v0l565 1123v0h157h158v0l-812 -1470h-148h-149z" />
    <glyph glyph-name="W" unicode="W" horiz-adv-x="1933" 
d="M451 0l-105 1470v0h168h169v0l8 -1058v0v0l423 1058h163h163l-4 -1071v0v0l475 1071v0h154h154v0l-723 -1470h-148h-149l13 1141v0v0l-476 -1141h-142h-143z" />
    <glyph glyph-name="X" unicode="X" horiz-adv-x="1366" 
d="M29 0l635 740v0l-294 730v0h181h181v0l162 -478v0v0l369 478v0h176h176v0l-593 -701v0l320 -769v0h-186h-187v0l-181 501v0v0l-397 -501v0h-181h-181v0z" />
    <glyph glyph-name="Y" unicode="Y" horiz-adv-x="1366" 
d="M652 556v0l-308 914v0h181h181v0l167 -634v0l424 634v0h173h174v0l-686 -913v0l-115 -557h-153h-153z" />
    <glyph glyph-name="Z" unicode="Z" horiz-adv-x="1251" 
d="M100 241l964 967v0h-737v0l29 131l29 131v0h1121l-25 -120l-25 -121l-965 -967v0h762v0l-29 -131l-29 -131v0h-1144l24 120z" />
    <glyph glyph-name="bracketleft" unicode="[" horiz-adv-x="682" 
d="M43 -405l388 1882v0h510l-40 -194h-258v0l-306 -1484v0h258l-42 -204h-510v0z" />
    <glyph glyph-name="backslash" unicode="\" horiz-adv-x="569" 
d="M390 -41l-136 1552h238l136 -1552h-238z" />
    <glyph glyph-name="bracketright" unicode="]" horiz-adv-x="682" 
d="M474 -405v0h-510l42 204h258v0l306 1484v0h-258l40 194h510v0z" />
    <glyph glyph-name="asciicircum" unicode="^" horiz-adv-x="1196" 
d="M1002 1430l210 -770h-224l-133 539v0l-363 -539h-224l530 770h102h102z" />
    <glyph glyph-name="underscore" unicode="_" 
d="M-54 -256l22 104h1139l-22 -104h-1139z" />
    <glyph glyph-name="grave" unicode="`" horiz-adv-x="682" 
d="M517 1238l-238 299h316l128 -299h-206z" />
    <glyph glyph-name="a" unicode="a" 
d="M400 -29q-134 0 -210.5 63.5t-76.5 176.5q0 18 2.5 41t7.5 45q28 136 134 228t260 113l242 34q34 5 64 17q38 15 58 43.5t19 66.5q-1 40 -27 61q-37 29 -134 29q-74 0 -126 -38.5t-81 -114.5v0h-271v0q42 187 184 284t373 97q211 0 305 -82q70 -60 69 -162q1 -35 -8 -75
l-123 -593q-15 -72 -9 -110.5t35 -53.5v-1l-8 -39h-155h-155v0q-7 64 2 127v0q-169 -157 -371 -157zM820 396l27 132v0q-41 -23 -90 -34l-116 -23q-114 -23 -163.5 -58t-63.5 -102q-2 -10 0 0q-2 -10 -3 -20t-1 -19q0 -46 29.5 -71t82.5 -25q136 0 241 108q18 18 34 50
q17 33 23 62z" />
    <glyph glyph-name="b" unicode="b" horiz-adv-x="1251" 
d="M429 1470v0h146h146v0l-107 -514v0q163 162 354 161q165 0 258 -101t93 -280q-1 -41 -6.5 -92t-15.5 -100q-51 -246 -214.5 -409.5t-359.5 -163.5q-197 0 -278 154l-12 25v0l-31 -150v0h-277v0zM692 207q108 0 192 89t114 235q7 32 11 65t4 61q-1 101 -49 156t-135 55
q-105 0 -190.5 -89t-113.5 -228v0h1v0q-35 -165 9 -255q43 -89 157 -89z" />
    <glyph glyph-name="c" unicode="c" 
d="M1157 397v0q-69 -196 -227.5 -311t-361.5 -115q-196 0 -301 98t-105 283q0 42 5.5 90.5t15.5 97.5q56 271 225.5 424t414.5 153q209 0 314 -110q87 -90 86 -240l-4 -67v0h-290v0q-4 93 -41 134.5t-115 41.5q-112 0 -185.5 -87.5t-110.5 -262.5q-6 -33 -10 -66.5t-4 -61.5
q0 -91 40 -141t113 -50q83 0 152 52.5t99 137.5v0h290z" />
    <glyph glyph-name="d" unicode="d" horiz-adv-x="1251" 
d="M520 -29q-165 0 -258.5 105.5t-93.5 292.5q0 45 6.5 101.5t17.5 111.5q48 230 205 382.5t347 152.5q208 0 292 -157l5 -9v0l108 519v0h143h144v0l-304 -1470v0h-143h-144v0l25 123v0q-158 -152 -350 -152zM793 869q-110 0 -196 -90.5t-117 -238.5q-7 -33 -10.5 -65
t-3.5 -57q0 -101 49.5 -156t139.5 -55q111 0 197 87.5t115 230.5q34 165 -11 254.5t-163 89.5z" />
    <glyph glyph-name="e" unicode="e" 
d="M583 -29q-213 0 -326.5 100.5t-113.5 289.5q1 40 6 86t14 93q56 271 224.5 424t411.5 153q205 0 310 -100t105 -294q0 -48 -6 -103t-19 -114l-7 -35v0h-746v0l-2 -14q-4 -30 -4 -57q1 -99 51 -148.5t151 -49.5q73 0 133 31.5t85 82.5v0h290v0q-76 -159 -226.5 -252
t-330.5 -93zM928 658v0l1 38q0 94 -44.5 139.5t-135.5 45.5q-115 0 -191 -89q-44 -52 -75 -134v0h445z" />
    <glyph glyph-name="f" unicode="f" horiz-adv-x="682" 
d="M647 883v0l-182 -883v0h-143h-144v0l182 883v0h-160l43 205h160v0l19 91q32 158 131 234.5t272 76.5l132 -3l-48 -236h-87q-58 0 -83 -23.5t-39 -90.5l-10 -49v0h185l-43 -205h-185z" />
    <glyph glyph-name="g" unicode="g" horiz-adv-x="1251" 
d="M575 -229q121 0 192.5 62t97.5 192l31 153v0q-21 -31 -45 -56q-121 -128 -299 -128q-176 0 -275.5 102.5t-100.5 283.5q0 39 5.5 87t15.5 95q49 239 214 397t365 158q184 0 257 -137q16 -29 27 -66v0l36 174v0h270l-214 -1031q-52 -256 -207.5 -379.5t-425.5 -123.5
q-229 0 -344 84.5t-97 241.5v0h312v0q0 -60 41.5 -84.5t143.5 -24.5zM801 868q-107 0 -190.5 -87t-112.5 -230q-7 -31 -10 -61.5t-4 -55.5q0 -97 48 -150.5t136 -53.5q108 0 191 84t111 222q33 159 -11 245.5t-158 86.5z" />
    <glyph glyph-name="h" unicode="h" horiz-adv-x="1251" 
d="M133 0l304 1470v0h143h144v0l-108 -521v0v0l28 28q136 140 330 140q176 0 255 -99.5t42 -275.5l-153 -742v0h-143h-144v0l139 672q21 104 -12 154t-123 50q-110 0 -186 -66.5t-100 -184.5v0l-129 -625v0h-143h-144v0z" />
    <glyph glyph-name="i" unicode="i" horiz-adv-x="569" 
d="M141 0l225 1088v0h143h144v0l-225 -1088v0h-143h-144v0zM457 1482h290l-54 -262h-290z" />
    <glyph glyph-name="j" unicode="j" horiz-adv-x="569" 
d="M362 1088v0h143h144v0l-250 -1212q-38 -185 -126 -253q-86 -67 -286 -67h-72l43 228h52q43 0 67.5 22t34.5 70v0zM454 1482h290l-54 -262h-290z" />
    <glyph glyph-name="k" unicode="k" 
d="M141 0l304 1470v0h143h144v0l-166 -800v0l452 418v0h175h175v0l-474 -409v0l259 -679v0h-171h-172v0l-163 466v0l-150 -130v0l-69 -336v0h-143h-144v0z" />
    <glyph glyph-name="l" unicode="l" horiz-adv-x="569" 
d="M141 0l304 1470v0h143h144v0l-304 -1470v0h-143h-144v0z" />
    <glyph glyph-name="m" unicode="m" horiz-adv-x="1821" 
d="M131 0l225 1088v0h139h139v0l-32 -154v0v0l44 52q124 131 300 131q159 0 230 -90q31 -37 41 -88v0l39 47q119 131 289 131q175 0 253 -99q54 -67 53 -170q1 -48 -11 -103l-154 -745v0h-143h-144v0l145 705q19 87 -9 129t-104 42q-98 0 -159 -55t-84 -165v0l-135 -656v0
h-143h-144v0l144 697q19 91 -10.5 135t-108.5 44q-96 0 -155.5 -55t-82.5 -165v0l-135 -656v0h-143h-144v0z" />
    <glyph glyph-name="n" unicode="n" horiz-adv-x="1251" 
d="M133 0l225 1088v0h139h139v0l-32 -156v0v0l40 45q136 140 330 140q176 0 255 -99.5t42 -275.5l-153 -742v0h-143h-144v0l139 672q21 104 -12 154t-123 50q-110 0 -186 -66.5t-100 -184.5v0l-129 -625v0h-143h-144v0z" />
    <glyph glyph-name="o" unicode="o" horiz-adv-x="1251" 
d="M625 -29q-211 0 -333.5 111.5t-123.5 303.5q0 33 4.5 74.5t12.5 79.5q55 265 237.5 421t439.5 156q211 0 333.5 -113t122.5 -307q0 -34 -5 -76t-13 -81q-54 -262 -236.5 -415.5t-438.5 -153.5v0zM674 212q131 0 214 86t119 259q6 28 9 56t3 51q0 101 -54 156.5t-153 55.5
q-130 0 -213 -87.5t-120 -263.5q-5 -27 -8.5 -54t-2.5 -50q0 -100 53.5 -154.5t152.5 -54.5v0z" />
    <glyph glyph-name="p" unicode="p" horiz-adv-x="1251" 
d="M350 1088v0h135h135v0l-32 -156v0l22 23q162 162 356 162q166 0 259.5 -101t93.5 -280q-1 -41 -6.5 -92t-15.5 -100q-51 -246 -215.5 -409.5t-361.5 -163.5q-198 0 -280 154l-2 4v0l-114 -555v0h-143h-144v0zM689 207q109 0 194 89t115 235q7 32 11 64.5t3 60.5
q0 101 -48.5 156.5t-137.5 55.5q-106 0 -192 -89t-114 -228v0h1v0q-35 -165 9 -254.5t159 -89.5z" />
    <glyph glyph-name="q" unicode="q" horiz-adv-x="1251" 
d="M521 -29q-167 0 -261.5 102t-95.5 283q1 41 6.5 92.5t15.5 101.5q51 244 220 405.5t374 161.5q192 0 267 -157l8 -16v0l30 144v0h273v0l-313 -1514v0h-143h-144v0l113 548v0q-157 -150 -350 -151zM794 869q-118 0 -200 -90.5t-117 -258.5q-6 -29 -9.5 -57.5t-2.5 -51.5
q0 -97 49.5 -150.5t141.5 -53.5q111 0 197 87.5t115 230.5q34 165 -11 254.5t-163 89.5z" />
    <glyph glyph-name="r" unicode="r" horiz-adv-x="797" 
d="M131 0l225 1088v0h136h137v0l-46 -221v0v0q26 41 57 80q135 170 290 170l69 -1l-51 -244q-36 4 -86 4q-129 0 -212.5 -78.5t-114.5 -228.5v0l-117 -569v0h-143h-144v0z" />
    <glyph glyph-name="s" unicode="s" 
d="M924 762v0q0 76 -38 107.5t-131 31.5q-85 0 -137.5 -25t-61.5 -69q-8 -38 34 -65q43 -26 159 -53q256 -60 338 -134q61 -55 61 -146q0 -33 -8 -71q-35 -169 -185.5 -268t-373.5 -99q-248 0 -360 94q-91 77 -92 217l5 66v0h293v0q-10 -82 43 -121.5t175 -39.5
q80 0 131.5 29.5t62.5 81.5q8 40 -37 67t-168 56q-242 56 -319 128q-56 53 -56 140q0 34 8 72q34 164 172.5 260t340.5 96q234 0 341 -90q85 -71 85 -197q0 -31 -6 -68v0h-276z" />
    <glyph glyph-name="t" unicode="t" horiz-adv-x="682" 
d="M631 -8q-70 -5 -177 -5q-156 0 -209.5 52.5t-27.5 180.5l137 663v0h-149l43 205h149v0l60 293h287l-60 -293v0h173l-43 -205h-173v0l-127 -614q-7 -34 15 -49.5t77 -15.5l69 4z" />
    <glyph glyph-name="u" unicode="u" horiz-adv-x="1251" 
d="M648 1088l-139 -672q-22 -104 11 -154t123 -50q110 0 186 66.5t100 184.5v0l130 625v0h143h144v0l-225 -1088v0h-139h-139v0l32 159v0v0q-17 -24 -41 -48q-135 -140 -329 -140q-176 0 -254 110q-50 71 -50 180q0 56 14 123l146 704v0h143h144v0z" />
    <glyph glyph-name="v" unicode="v" 
d="M258 1088v0h160h160v0l60 -802v0v0l401 802v0h152h152v0l-617 -1088h-150h-151z" />
    <glyph glyph-name="w" unicode="w" horiz-adv-x="1593" 
d="M329 0l-77 1088v0h151h152v0l4 -794v0v0l328 794h144h144l-3 -791v0v0l336 791v0h149h149v0l-539 -1088h-150h-151l-2 799v0v0l-344 -799h-145h-146z" />
    <glyph glyph-name="x" unicode="x" 
d="M31 0l491 560v0l-248 528v0h174h175v0l117 -316v0v0l247 316v0h169h170v0l-465 -539v0l255 -549v0h-178h-178v0l-118 330v0v0l-262 -330v0h-174h-175v0z" />
    <glyph glyph-name="y" unicode="y" 
d="M1335 1088l-593 -1080q-164 -301 -256 -382t-267 -81q-79 0 -133 7l47 228q9 -4 56 -4q117 0 160 45q29 29 73 130v0l-172 1137v0h160h160v0l66 -812v0v0l397 812v0h151h151v0z" />
    <glyph glyph-name="z" unicode="z" horiz-adv-x="1024" 
d="M93 234l686 620l8 7v0h-518v0l25 113l26 114v0h877l-24 -117l-25 -117l-686 -619v0h564v0l-22 -117l-22 -118v0h-941l26 117z" />
    <glyph glyph-name="braceleft" unicode="{" horiz-adv-x="797" 
d="M674 -395q-266 -12 -351 63.5t-36 279.5l51 250q31 133 -2 190t-143 57l39 192q110 0 167 57t81 190l51 250q37 204 153 279.5t376 63.5l-37 -182q-126 6 -176 -27t-68 -134l-51 -250q-37 -212 -141 -283q-63 -43 -187 -60v0q117 -17 162 -60q74 -71 24 -283l-51 -250
q-24 -101 12 -134t164 -27z" />
    <glyph glyph-name="bar" unicode="|" horiz-adv-x="573" 
d="M64 -512l424 2048h234l-424 -2048h-234z" />
    <glyph glyph-name="braceright" unicode="}" horiz-adv-x="797" 
d="M-36 -395l37 182q126 -6 176 27t68 134l51 250q36 212 140 283q63 43 188 60v0q-118 17 -163 60q-74 71 -23 283l51 250q24 101 -12 134t-164 27l37 182q266 12 351 -63.5t36 -279.5l-51 -250q-32 -133 1 -190t143 -57l-39 -192q-110 0 -167 -57t-80 -190l-51 -250
q-37 -204 -153 -280q-116 -75 -376 -63z" />
    <glyph glyph-name="asciitilde" unicode="~" horiz-adv-x="1196" 
d="M236 515q54 81 134 129t162 48q48 0 101.5 -18t136.5 -61q54 -28 98.5 -44.5t67.5 -16.5q49 0 99.5 36t110.5 113l35 -184q-65 -83 -142 -130t-149 -47q-53 0 -107 21t-134 72q-36 23 -83 37t-91 14q-48 0 -107.5 -44.5t-96.5 -108.5z" />
    <glyph glyph-name="uni00A0" unicode="&#xa0;" horiz-adv-x="569" 
 />
    <glyph glyph-name="exclamdown" unicode="&#xa1;" horiz-adv-x="682" 
d="M562 685l-62 -703l-75 -364h-161h-162l75 364l230 703h78v0h77zM659 799h-302l59 289h302z" />
    <glyph glyph-name="cent" unicode="&#xa2;" 
d="M1001 1283h109l-92 -190q76 -25 124 -78q83 -90 84 -251l-3 -58v0h-290v0q-8 90 -40 131l-303 -622l34 -3q81 0 148 49.5t95 130.5v0h291v0q-67 -194 -226.5 -307.5t-364.5 -113.5q-48 0 -91 6l-107 -219h-109l118 243q-63 26 -111 69q-105 99 -105 277q-1 39 4.5 83.5
t14.5 88.5q60 288 230.5 444.5t426.5 156.5q45 1 81 -5zM505 263l300 616h-24q-114 0 -190 -90.5t-114 -272.5v0l-9 -61q-3 -30 -4 -55q1 -90 43 -139z" />
    <glyph glyph-name="sterling" unicode="&#xa3;" 
d="M1126 62q-72 -42 -168 -70.5t-164 -28.5q-37 0 -99 15t-116 37q-39 16 -88 27t-80 11q-29 0 -99 -21.5t-143 -53.5l-67 194q101 53 190.5 146.5t102.5 159.5q12 55 5 103q-2 28 -18 74h-190l26 123h128q-30 98 -36 153q-6 67 14 162q30 147 204.5 262t366.5 115
q241 0 342 -119t53 -348v0h-267v0q13 131 -26 185t-148 54q-80 0 -154 -53.5t-89 -122.5q-10 -49 -5.5 -89t28.5 -126l19 -73h272l-26 -123h-226q1 -53 -13 -122q-24 -114 -178 -248q-41 -35 -83 -65l5 1q150 43 209 43q38 0 76 -6t54 -15q26 -14 69 -24t79 -10
q42 0 102 20.5t105 49.5z" />
    <glyph glyph-name="currency" unicode="&#xa4;" 
d="M934 727q22 97 -24 163.5t-134 66.5t-164 -67q-74 -66 -96 -163t24 -163.5t134 -66.5t163 66.5t97 163.5zM627 287q-132 1 -223 64v0l-244 -201l-105 135l244 201v0q-44 106 -14 241t122 241v0l-154 201l165 135l155 -202v0q118 65 250 65q132 -1 223 -65v0l245 202
l105 -135l-245 -202v0q44 -104 14 -240q-31 -134 -121 -241v0l154 -201l-165 -135l-156 203v0q-116 -66 -250 -66z" />
    <glyph glyph-name="yen" unicode="&#xa5;" 
d="M181 711l25 121h268v0l-193 597v0h157h157v0l162 -602v0l409 602v0h146h146v0l-434 -597v0h264l-25 -121h-327v0l-115 -158v0h409l-25 -121h-411v0l-89 -432v0h-130h-130v0l89 432v0h-411l25 121h411v0l2 8v0l-48 150v0h-332z" />
    <glyph glyph-name="brokenbar" unicode="&#xa6;" horiz-adv-x="573" 
d="M104 -342l140 683h234l-140 -683h-234zM315 682l141 683h234l-141 -683h-234z" />
    <glyph glyph-name="section" unicode="&#xa7;" 
d="M865 1492q206 0 297 -94.5t58 -275.5v0h-264v0q6 82 -25.5 115.5t-114.5 33.5q-52 0 -101 -35.5t-59 -80.5q-9 -38 39.5 -79.5t181.5 -111.5q219 -116 281 -193.5t35 -201.5q-34 -151 -193 -251q-35 -22 -74 -40q29 -26 45 -50q60 -84 28 -225q-36 -166 -179 -276
q-141 -109 -319 -109q-205 0 -300.5 99.5t-75.5 290.5v0h267v0q2 -93 37.5 -131t121.5 -38q55 0 107 42t64 95q10 50 -33 95t-165 113q-230 126 -296 207t-38 205q35 160 196 266l54 32l-14 20q-61 81 -31 215q35 156 169 260q134 103 301 103zM920 492q13 58 -33.5 107
t-180.5 119q-80 43 -140 80l-8 -4q-81 -53 -96 -121q-13 -57 38 -110t199 -133q56 -30 101 -60l28 15q79 47 92 107z" />
    <glyph glyph-name="dieresis" unicode="&#xa8;" horiz-adv-x="682" 
d="M329 1492h258l-48 -235h-258zM731 1492h258l-48 -235h-258z" />
    <glyph glyph-name="glyph106" horiz-adv-x="0" 
d="M311 1506q328 0 508 -224.5t113 -550.5q-68 -326 -340.5 -550.5t-600.5 -224.5t-508.5 224.5t-112.5 550.5q67 326 340 550.5t601 224.5v0zM709 731q52 251 -73.5 424t-360.5 173t-432.5 -173t-249.5 -424t74 -424t360 -173t432 173t250 424v0z" />
    <glyph glyph-name="glyph107" horiz-adv-x="0" 
d="M507 620v0q-57 -148 -173 -235t-257 -87q-158 0 -251.5 91t-93.5 244q0 237 151 394.5t378 157.5q147 0 223 -79t76 -230v0h-179v0q-6 65 -45.5 98.5t-111.5 33.5q-120 0 -196 -96t-76 -247q0 -92 44 -141t126 -49q65 0 120 40t80 105v0h185z" />
    <glyph glyph-name="copyright" unicode="&#xa9;" horiz-adv-x="1509" 
d="M1056 1506q328 0 508 -224.5t113 -550.5q-68 -326 -340.5 -550.5t-600.5 -224.5t-508.5 224.5t-112.5 550.5q67 326 340 550.5t601 224.5v0zM1454 731q52 251 -73.5 424t-360.5 173t-432.5 -173t-249.5 -424t74 -424t360 -173t432 173t250 424v0zM1257 620v0
q-57 -148 -173 -235t-257 -87q-158 0 -251.5 91t-93.5 244q0 237 151 394.5t378 157.5q147 0 223 -79t76 -230v0h-179v0q-6 65 -45.5 98.5t-111.5 33.5q-120 0 -196 -96t-76 -247q0 -92 44 -141t126 -49q65 0 120 40t80 105v0h185z" />
    <glyph glyph-name="ordfeminine" unicode="&#xaa;" horiz-adv-x="758" 
d="M429 823q-81 0 -127 37.5t-46 103.5q0 11 1.5 24.5t3.5 25.5q17 82 80.5 138t152.5 68l197 27l24 4q21 4 34 18.5t15 37.5q3 26 -24 41t-91 15q-46 0 -79.5 -21t-54.5 -63v0h-175v0q40 117 128 173t233 56q138 0 201 -49q46 -37 47 -101l-5 -42l-72 -348
q-10 -49 -4.5 -73.5t26.5 -30.5v-1l-5 -24h-101h-102v0q-1 31 2 78v0q-108 -94 -259 -94zM720 1091l13 61v0l-43 -11l-108 -21q-62 -13 -90.5 -33.5t-36.5 -60.5q-2 -10 -2 -20q0 -27 18 -44t48 -17q99 0 160 60q12 13 24 37q12 25 17 49zM222 732h616l-34 -163h-616z" />
    <glyph glyph-name="guillemotleft" unicode="&#xab;" 
d="M683 751l-245 -178v0l171 -179l-49 -237l-284 296l25 120l25 120l406 295zM1114 751l-245 -178v0l171 -179l-49 -237l-284 296l25 120l25 120l406 295z" />
    <glyph glyph-name="logicalnot" unicode="&#xac;" horiz-adv-x="1196" 
d="M1019 631h-804l47 226h1030l-131 -634h-226z" />
    <glyph glyph-name="uni00AD" unicode="&#xad;" horiz-adv-x="682" 
d="M205 707h574l-55 -266h-574z" />
    <glyph glyph-name="glyph113" horiz-adv-x="0" 
d="M311 1506q328 0 508 -224.5t113 -550.5q-68 -326 -340.5 -550.5t-600.5 -224.5t-508.5 224.5t-112.5 550.5q67 326 340 550.5t601 224.5v0zM709 731q52 251 -73.5 424t-360.5 173t-432.5 -173t-249.5 -424t74 -424t360 -173t432 173t250 424v0z" />
    <glyph glyph-name="glyph114" horiz-adv-x="0" 
d="M-256 313l174 837v0h89v0h232q139 0 212 -47.5t73 -134.5v-3q0 -14 -1.5 -28.5t-3.5 -28.5q-28 -131 -113 -185q-47 -31 -131 -43v0l134 -367v0h-106h-107v0l-115 356v0h-84v0l-74 -356v0h-89h-90v0zM26 808v0h104q100 0 143.5 22t55.5 79q3 14 3 23q0 42 -43.5 61
t-138.5 19h-82v0z" />
    <glyph glyph-name="registered" unicode="&#xae;" horiz-adv-x="1509" 
d="M1054 1506q328 0 508 -224.5t113 -550.5q-68 -326 -340.5 -550.5t-600.5 -224.5t-508.5 224.5t-112.5 550.5q67 326 340 550.5t601 224.5v0zM1452 731q52 251 -73.5 424t-360.5 173t-432.5 -173t-249.5 -424t74 -424t360 -173t432 173t250 424v0zM504 313l174 837v0h89v0
h232q139 0 212 -47.5t73 -134.5v-3q0 -14 -1.5 -28.5t-3.5 -28.5q-28 -131 -113 -185q-47 -31 -131 -43v0l134 -367v0h-106h-107v0l-115 356v0h-84v0l-74 -356v0h-89h-90v0zM786 808v0h104q100 0 143.5 22t55.5 79q3 14 3 23q0 42 -43.5 61t-138.5 19h-82v0z" />
    <glyph glyph-name="macron" unicode="&#xaf;" horiz-adv-x="682" 
d="M250 1235l32 152h702l-32 -152h-702z" />
    <glyph glyph-name="degree" unicode="&#xb0;" horiz-adv-x="819" 
d="M714 1459q122 0 186.5 -85.5t37.5 -208.5q-28 -123 -131 -208t-225 -85t-187 85t-37 208q27 123 130.5 208.5t225.5 85.5zM824 1165q17 76 -22.5 128t-113.5 52t-136.5 -52t-79.5 -128q-17 -75 22.5 -127t113.5 -52t136.5 52t79.5 127z" />
    <glyph glyph-name="plusminus" unicode="&#xb1;" horiz-adv-x="1196" 
d="M598 554h-402l47 226h402l53 258h226l-53 -258h402l-47 -226h-402l-53 -258h-226zM128 224h1030l-46 -226h-1030z" />
    <glyph glyph-name="uni00B2" unicode="&#xb2;" horiz-adv-x="682" 
d="M918 1227q0 -115 -77 -200q-75 -85 -269 -187q-89 -46 -141 -94v0h394l-34 -165h-650v0q25 120 106 207t262 188q121 68 168 119t46 111q0 41 -28.5 63.5t-79.5 22.5q-65 0 -104.5 -37.5t-55.5 -113.5v0h-185v0q32 147 132.5 230t244.5 83q127 0 199 -60t72 -167z" />
    <glyph glyph-name="uni00B3" unicode="&#xb3;" horiz-adv-x="682" 
d="M686 1195q3 13 3 28q0 36 -24 57t-65 21q-57 0 -95 -32t-54 -93v0h-176v0q18 120 120 199t238 79q114 0 184.5 -54t70.5 -141q0 -11 -1.5 -24.5t-3.5 -24.5q-19 -93 -117 -153l-25 -14v0l26 -14q75 -48 75 -134q0 -11 -1.5 -24t-3.5 -25q-28 -136 -130 -213t-255 -77
q-159 0 -224 70.5t-42 216.5v0h186v0q-11 -68 13.5 -101t87.5 -33q69 0 109 33t54 102q3 13 3 23q0 41 -35.5 63t-101.5 22h-46l29 140h33q76 0 117 25q40 24 51 78z" />
    <glyph glyph-name="acute" unicode="&#xb4;" horiz-adv-x="682" 
d="M483 1238l257 297h313l-361 -297h-209z" />
    <glyph glyph-name="uni00B5" unicode="&#xb5;" horiz-adv-x="1251" 
d="M643 1088l-140 -677q-20 -95 21 -147t136 -52q92 0 164 61.5t92 158.5v0l136 656h287l-225 -1088h-273l31 154v0v0q-18 -26 -41 -52q-118 -131 -255 -131q-104 0 -151 59h-1l-92 -454h-287l153 750l158 762h287z" />
    <glyph glyph-name="paragraph" unicode="&#xb6;" 
d="M592 709v0q-183 2 -287 77t-104 210q0 197 149 317t392 120h661v0l-376 -1822h-231l341 1650v0h-204v0l-341 -1650h-226z" />
    <glyph glyph-name="periodcentered" unicode="&#xb7;" horiz-adv-x="569" 
d="M307 856h304l-62 -300h-304z" />
    <glyph glyph-name="cedilla" unicode="&#xb8;" horiz-adv-x="682" 
d="M339 0l-101 -111v0l60 7q82 0 123 -44t26 -116q-18 -87 -102.5 -145t-194.5 -58q-60 0 -117 14t-108 40l65 96q47 -15 87.5 -24t63.5 -9q40 0 73 23t40 57q6 30 -13 52t-51 22q-12 0 -39 -5t-46 -11l-35 41l151 171h118z" />
    <glyph glyph-name="uni00B9" unicode="&#xb9;" horiz-adv-x="682" 
d="M407 581l123 596v0h-227l27 129q85 -6 162 32q77 39 134 116h168v0l-181 -873v0h-103h-103v0z" />
    <glyph glyph-name="ordmasculine" unicode="&#xba;" horiz-adv-x="748" 
d="M552 823q-139 0 -221 69q-80 67 -80 182v3q-1 18 2 41t7 44q33 158 149.5 251t283.5 93q139 0 220.5 -68.5t80.5 -185.5v-3q0 -18 -2.5 -41.5t-7.5 -45.5q-32 -156 -148.5 -247.5t-283.5 -91.5v0zM582 967q76 0 130 54.5t74 151.5q3 14 4.5 28.5t2.5 25.5q-1 61 -35.5 98
t-93.5 37q-76 0 -130.5 -55.5t-75.5 -153.5q-2 -13 -3.5 -27.5t-2.5 -25.5q0 -60 35.5 -96.5t94.5 -36.5v0zM222 713h614l-34 -163h-614z" />
    <glyph glyph-name="guillemotright" unicode="&#xbb;" 
d="M262 394l245 178v0l-171 179l49 237l284 -296l-25 -120l-25 -120l-406 -295zM693 394l245 178v0l-171 179l49 237l284 -296l-25 -120l-25 -120l-406 -295z" />
    <glyph glyph-name="uni2215" unicode="&#x2215;" horiz-adv-x="342" 
d="M998 1455l-1195 -1499h-158l1195 1499h158z" />
    <glyph glyph-name="glyph130" horiz-adv-x="682" 
d="M407 581l123 596v0h-227l27 129q85 -6 162 32q77 39 134 116h168v0l-181 -873v0h-103h-103v0z" />
    <glyph glyph-name="glyph131" horiz-adv-x="682" 
d="M544 768h-366l19 80l20 81l491 500h96h96l-122 -505v0h107l-37 -156h-107v0l-45 -187h-197l45 187v0zM581 924v0l52 217v0v0l-203 -212l-6 -5v0h157z" />
    <glyph glyph-name="onequarter" unicode="&#xbc;" horiz-adv-x="1708" 
d="M1623 1455l-1195 -1499h-158l1195 1499h158zM401 581l123 596v0h-227l27 129q85 -6 162 32q77 39 134 116h168v0l-181 -873v0h-103h-103v0zM1308 187h-366l19 80l20 81l491 500h96h96l-122 -505v0h107l-37 -156h-107v0l-45 -187h-197l45 187v0zM1345 343v0l52 217v0v0
l-203 -212l-6 -5v0h157z" />
    <glyph glyph-name="glyph133" horiz-adv-x="682" 
d="M407 581l123 596v0h-227l27 129q85 -6 162 32q77 39 134 116h168v0l-181 -873v0h-103h-103v0z" />
    <glyph glyph-name="glyph134" horiz-adv-x="682" 
d="M918 1227q0 -115 -77 -200q-75 -85 -269 -187q-89 -46 -141 -94v0h394l-34 -165h-650v0q25 120 106 207t262 188q121 68 168 119t46 111q0 41 -28.5 63.5t-79.5 22.5q-65 0 -104.5 -37.5t-55.5 -113.5v0h-185v0q32 147 132.5 230t244.5 83q127 0 199 -60t72 -167z" />
    <glyph glyph-name="onehalf" unicode="&#xbd;" horiz-adv-x="1708" 
d="M1623 1455l-1195 -1499h-158l1195 1499h158zM401 581l123 596v0h-227l27 129q85 -6 162 32q77 39 134 116h168v0l-181 -873v0h-103h-103v0zM1758 646q0 -115 -77 -200q-75 -85 -269 -187q-89 -46 -141 -94v0h394l-34 -165h-650v0q25 120 106 207t262 188q121 68 168 119
t46 111q0 41 -28.5 63.5t-79.5 22.5q-65 0 -104.5 -37.5t-55.5 -113.5v0h-185v0q32 147 132.5 230t244.5 83q127 0 199 -60t72 -167z" />
    <glyph glyph-name="glyph136" horiz-adv-x="682" 
d="M686 1195q3 13 3 28q0 36 -24 57t-65 21q-57 0 -95 -32t-54 -93v0h-176v0q18 120 120 199t238 79q114 0 184.5 -54t70.5 -141q0 -11 -1.5 -24.5t-3.5 -24.5q-19 -93 -117 -153l-25 -14v0l26 -14q75 -48 75 -134q0 -11 -1.5 -24t-3.5 -25q-28 -136 -130 -213t-255 -77
q-159 0 -224 70.5t-42 216.5v0h186v0q-11 -68 13.5 -101t87.5 -33q69 0 109 33t54 102q3 13 3 23q0 41 -35.5 63t-101.5 22h-46l29 140h33q76 0 117 25q40 24 51 78z" />
    <glyph glyph-name="glyph137" horiz-adv-x="682" 
d="M544 768h-366l19 80l20 81l491 500h96h96l-122 -505v0h107l-37 -156h-107v0l-45 -187h-197l45 187v0zM581 924v0l52 217v0v0l-203 -212l-6 -5v0h157z" />
    <glyph glyph-name="threequarters" unicode="&#xbe;" horiz-adv-x="1708" 
d="M1705 1455l-1195 -1499h-158l1195 1499h158zM703 1195q3 13 3 28q0 36 -24 57t-65 21q-57 0 -95 -32t-54 -93v0h-176v0q18 120 120 199t238 79q114 0 184.5 -54t70.5 -141q0 -11 -1.5 -24.5t-3.5 -24.5q-19 -93 -117 -153l-25 -14v0l26 -14q75 -48 75 -134
q0 -11 -1.5 -24t-3.5 -25q-28 -136 -130 -213t-255 -77q-159 0 -224 70.5t-42 216.5v0h186v0q-11 -68 13.5 -101t87.5 -33q69 0 109 33t54 102q3 13 3 23q0 41 -35.5 63t-101.5 22h-46l29 140h33q76 0 117 25q40 24 51 78zM1350 187h-366l19 80l20 81l491 500h96h96
l-122 -505v0h107l-37 -156h-107v0l-45 -187h-197l45 187v0zM1387 343v0l52 217v0v0l-203 -212l-6 -5v0h157z" />
    <glyph glyph-name="questiondown" unicode="&#xbf;" horiz-adv-x="1251" 
d="M588 -156q91 0 157 61t108 183v0h284v0q-51 -215 -218.5 -351.5t-380.5 -136.5q-244 0 -357.5 118.5t-71.5 328.5q22 105 97.5 184t277.5 211q46 31 83 92t48 127h262q-26 -148 -92 -244.5t-197 -176.5q-68 -42 -119 -96q-49 -54 -58 -97q-18 -94 29 -149q47 -54 148 -54
zM921 806h-290l60 286h290z" />
    <glyph glyph-name="glyph140" horiz-adv-x="0" 
d="M-80 0l-239 299h316l129 -299h-206z" />
    <glyph glyph-name="Agrave" unicode="&#xc0;" horiz-adv-x="1479" 
d="M41 0l841 1470h177h177l206 -1470v0h-167h-168v0l-34 308v0h-543v0l-164 -308v0h-162h-163v0zM983 1146l-320 -595v0h386v0l-66 595v0v0zM1010 1620l-239 299h316l129 -299h-206z" />
    <glyph glyph-name="glyph142" horiz-adv-x="0" 
d="M-106 0l256 297h313l-360 -297h-209z" />
    <glyph glyph-name="Aacute" unicode="&#xc1;" horiz-adv-x="1479" 
d="M41 0l841 1470h177h177l206 -1470v0h-167h-168v0l-34 308v0h-543v0l-164 -308v0h-162h-163v0zM983 1146l-320 -595v0h386v0l-66 595v0v0zM984 1620l256 297h313l-360 -297h-209z" />
    <glyph glyph-name="glyph144" horiz-adv-x="0" 
d="M200 299l168 -299h-229l-95 167v0l-164 -167h-234l300 299h127h127z" />
    <glyph glyph-name="Acircumflex" unicode="&#xc2;" horiz-adv-x="1479" 
d="M41 0l841 1470h177h177l206 -1470v0h-167h-168v0l-34 308v0h-543v0l-164 -308v0h-162h-163v0zM983 1146l-320 -595v0h386v0l-66 595v0v0zM1290 1919l168 -299h-229l-95 167v0l-164 -167h-234l300 299h127h127z" />
    <glyph glyph-name="glyph146" horiz-adv-x="0" 
d="M-358 15q43 114 124 181t175 67q26 0 70 -12.5t82 -30.5q29 -13 60.5 -22.5t48.5 -9.5q34 0 67.5 24.5t47.5 60.5h130q-40 -117 -112.5 -182.5t-160.5 -65.5q-31 0 -83 12.5t-95 30.5q-34 13 -65.5 22.5t-44.5 9.5q-33 0 -66 -24.5t-48 -60.5h-130z" />
    <glyph glyph-name="Atilde" unicode="&#xc3;" horiz-adv-x="1479" 
d="M41 0l841 1470h177h177l206 -1470v0h-167h-168v0l-34 308v0h-543v0l-164 -308v0h-162h-163v0zM983 1146l-320 -595v0h386v0l-66 595v0v0zM732 1635q43 114 124 181t175 67q26 0 70 -12.5t82 -30.5q29 -13 60.5 -22.5t48.5 -9.5q34 0 67.5 24.5t47.5 60.5h130
q-40 -117 -112.5 -182.5t-160.5 -65.5q-31 0 -83 12.5t-95 30.5q-34 13 -65.5 22.5t-44.5 9.5q-33 0 -66 -24.5t-48 -60.5h-130z" />
    <glyph glyph-name="glyph148" horiz-adv-x="0" 
d="M-278 254h258l-49 -235h-258zM124 254h258l-49 -235h-258z" />
    <glyph glyph-name="Adieresis" unicode="&#xc4;" horiz-adv-x="1479" 
d="M41 0l841 1470h177h177l206 -1470v0h-167h-168v0l-34 308v0h-543v0l-164 -308v0h-162h-163v0zM983 1146l-320 -595v0h386v0l-66 595v0v0zM812 1874h258l-49 -235h-258zM1214 1874h258l-49 -235h-258z" />
    <glyph glyph-name="glyph150" horiz-adv-x="0" 
d="M-14 -72q-93 0 -145 62t-33 151q18 89 95 151t170 62t144 -62t33 -151q-19 -89 -95 -151t-169 -62v0zM8 42q45 0 82 28.5t46 70.5q8 42 -17 70.5t-70 28.5t-82 -28.5t-45 -70.5q-9 -42 16 -70.5t70 -28.5v0z" />
    <glyph glyph-name="Aring" unicode="&#xc5;" horiz-adv-x="1479" 
d="M41 0l841 1470h177h177l206 -1470v0h-167h-168v0l-34 308v0h-543v0l-164 -308v0h-162h-163v0zM983 1146l-320 -595v0h386v0l-66 595v0v0zM1076 1548q-93 0 -145 62t-33 151q18 89 95 151t170 62t144 -62t33 -151q-19 -89 -95 -151t-169 -62v0zM1098 1662q45 0 82 28.5
t46 70.5q8 42 -17 70.5t-70 28.5t-82 -28.5t-45 -70.5q-9 -42 16 -70.5t70 -28.5v0z" />
    <glyph glyph-name="AE" unicode="&#xc6;" horiz-adv-x="2048" 
d="M884 0v0l66 319v0h-444v0l-174 -319v0h-161h-161v0l844 1470v0h633v0h752v0l-25 -131l-25 -131v0h-756v0l-64 -305v0h678l-27 -131l-27 -131v0h-678v0l-78 -379v0h767v0l-29 -131l-29 -131v0h-763v0h-299zM996 1208l-355 -646v0h359v0l134 646h-138v0z" />
    <glyph glyph-name="glyph153" horiz-adv-x="0" 
d="M5 0l-101 -111v0l60 7q82 0 123 -44t26 -116q-18 -87 -102.5 -145t-194.5 -58q-60 0 -117 14t-108 40l65 96q46 -15 86.5 -24t64.5 -9q40 0 73 23t40 57q6 30 -13 52t-51 22q-12 0 -39 -5t-46 -11l-35 41l151 171h118z" />
    <glyph glyph-name="Ccedilla" unicode="&#xc7;" horiz-adv-x="1479" 
d="M1498 500v0q-86 -247 -282.5 -392t-445.5 -145q-258 0 -404.5 141.5t-146.5 392.5q1 50 7.5 111.5t19.5 121.5q74 357 297.5 567t531.5 210q280 0 416 -133q122 -119 122 -334l-2 -55v0h-307v0q-7 143 -68 201.5t-202 58.5q-171 0 -299 -139t-177 -375q-10 -46 -15 -93
t-5 -85q0 -154 75.5 -241t209.5 -87q122 0 223 75.5t145 199.5v0h307zM782 0l-101 -111v0l60 7q82 0 123 -44t26 -116q-18 -87 -102.5 -145t-194.5 -58q-60 0 -117 14t-108 40l65 96q46 -15 86.5 -24t64.5 -9q40 0 73 23t40 57q6 30 -13 52t-51 22q-12 0 -39 -5t-46 -11
l-35 41l151 171h118z" />
    <glyph glyph-name="Egrave" unicode="&#xc8;" horiz-adv-x="1366" 
d="M156 0v0l304 1470v0h1085v0l-25 -131l-25 -131v0h-783v0l-64 -305v0h723l-27 -131l-27 -131v0h-723v0l-78 -379v0h817v0l-29 -131l-29 -131v0h-1119zM944 1620l-239 299h316l129 -299h-206z" />
    <glyph glyph-name="Eacute" unicode="&#xc9;" horiz-adv-x="1366" 
d="M156 0v0l304 1470v0h1085v0l-25 -131l-25 -131v0h-783v0l-64 -305v0h723l-27 -131l-27 -131v0h-723v0l-78 -379v0h817v0l-29 -131l-29 -131v0h-1119zM918 1620l256 297h313l-360 -297h-209z" />
    <glyph glyph-name="Ecircumflex" unicode="&#xca;" horiz-adv-x="1366" 
d="M156 0v0l304 1470v0h1085v0l-25 -131l-25 -131v0h-783v0l-64 -305v0h723l-27 -131l-27 -131v0h-723v0l-78 -379v0h817v0l-29 -131l-29 -131v0h-1119zM1224 1919l168 -299h-229l-95 167v0l-164 -167h-234l300 299h127h127z" />
    <glyph glyph-name="Edieresis" unicode="&#xcb;" horiz-adv-x="1366" 
d="M156 0v0l304 1470v0h1085v0l-25 -131l-25 -131v0h-783v0l-64 -305v0h723l-27 -131l-27 -131v0h-723v0l-78 -379v0h817v0l-29 -131l-29 -131v0h-1119zM746 1874h258l-49 -235h-258zM1148 1874h258l-49 -235h-258z" />
    <glyph glyph-name="Igrave" unicode="&#xcc;" horiz-adv-x="569" 
d="M131 0l304 1470v0h153h153v0l-304 -1470v0h-153h-153v0zM539 1620l-239 299h316l129 -299h-206z" />
    <glyph glyph-name="Iacute" unicode="&#xcd;" horiz-adv-x="569" 
d="M131 0l304 1470v0h153h153v0l-304 -1470v0h-153h-153v0zM513 1620l256 297h313l-360 -297h-209z" />
    <glyph glyph-name="Icircumflex" unicode="&#xce;" horiz-adv-x="569" 
d="M131 0l304 1470v0h153h153v0l-304 -1470v0h-153h-153v0zM819 1919l168 -299h-229l-95 167v0l-164 -167h-234l300 299h127h127z" />
    <glyph glyph-name="Idieresis" unicode="&#xcf;" horiz-adv-x="569" 
d="M131 0l304 1470v0h153h153v0l-304 -1470v0h-153h-153v0zM341 1874h258l-49 -235h-258zM743 1874h258l-49 -235h-258z" />
    <glyph glyph-name="Eth" unicode="&#xd0;" horiz-adv-x="1479" 
d="M159 0v0l133 645v0h-165l53 256h165v0l118 569v0h153v0h372q294 0 445.5 -124t151.5 -365q-1 -50 -7 -106t-18 -115q-86 -410 -278.5 -585t-560.5 -175h-409v0h-153zM717 1221v0l-66 -320v0h332l-53 -256h-332v0l-83 -401v0h256q200 0 305.5 100t154.5 334
q14 69 20.5 125t7.5 107q0 160 -78 235.5t-245 75.5h-219z" />
    <glyph glyph-name="Ntilde" unicode="&#xd1;" horiz-adv-x="1479" 
d="M427 0v0h-143h-143v0l304 1470v0h162h162v0l378 -1041v0v0l216 1041v0h143h143v0l-304 -1470h-152h-153l-395 1057v0v0zM720 1635q43 114 124 181t175 67q26 0 70 -12.5t82 -30.5q29 -13 60.5 -22.5t48.5 -9.5q34 0 67.5 24.5t47.5 60.5h130q-40 -117 -112.5 -182.5
t-160.5 -65.5q-31 0 -83 12.5t-95 30.5q-34 13 -65.5 22.5t-44.5 9.5q-33 0 -66 -24.5t-48 -60.5h-130z" />
    <glyph glyph-name="Ograve" unicode="&#xd2;" horiz-adv-x="1593" 
d="M793 -37q-269 0 -421.5 143t-152.5 397q0 50 6.5 110t18.5 117q74 357 308 567t560 210q269 0 421 -144.5t152 -400.5q-1 -50 -7.5 -111.5t-18.5 -120.5q-73 -353 -308 -560q-233 -207 -558 -207v0zM845 220q182 0 317.5 138t184.5 373q9 44 14 91t6 86q0 161 -82 251.5
t-227 90.5q-182 0 -317.5 -140t-184.5 -379q-9 -45 -14.5 -91t-5.5 -82q0 -159 82 -248.5t227 -89.5v0zM1055 1620l-239 299h316l129 -299h-206z" />
    <glyph glyph-name="Oacute" unicode="&#xd3;" horiz-adv-x="1593" 
d="M793 -37q-269 0 -421.5 143t-152.5 397q0 50 6.5 110t18.5 117q74 357 308 567t560 210q269 0 421 -144.5t152 -400.5q-1 -50 -7.5 -111.5t-18.5 -120.5q-73 -353 -308 -560q-233 -207 -558 -207v0zM845 220q182 0 317.5 138t184.5 373q9 44 14 91t6 86q0 161 -82 251.5
t-227 90.5q-182 0 -317.5 -140t-184.5 -379q-9 -45 -14.5 -91t-5.5 -82q0 -159 82 -248.5t227 -89.5v0zM1029 1620l256 297h313l-360 -297h-209z" />
    <glyph glyph-name="Ocircumflex" unicode="&#xd4;" horiz-adv-x="1593" 
d="M793 -37q-269 0 -421.5 143t-152.5 397q0 50 6.5 110t18.5 117q74 357 308 567t560 210q269 0 421 -144.5t152 -400.5q-1 -50 -7.5 -111.5t-18.5 -120.5q-73 -353 -308 -560q-233 -207 -558 -207v0zM845 220q182 0 317.5 138t184.5 373q9 44 14 91t6 86q0 161 -82 251.5
t-227 90.5q-182 0 -317.5 -140t-184.5 -379q-9 -45 -14.5 -91t-5.5 -82q0 -159 82 -248.5t227 -89.5v0zM1335 1919l168 -299h-229l-95 167v0l-164 -167h-234l300 299h127h127z" />
    <glyph glyph-name="Otilde" unicode="&#xd5;" horiz-adv-x="1593" 
d="M793 -37q-269 0 -421.5 143t-152.5 397q0 50 6.5 110t18.5 117q74 357 308 567t560 210q269 0 421 -144.5t152 -400.5q-1 -50 -7.5 -111.5t-18.5 -120.5q-73 -353 -308 -560q-233 -207 -558 -207v0zM845 220q182 0 317.5 138t184.5 373q9 44 14 91t6 86q0 161 -82 251.5
t-227 90.5q-182 0 -317.5 -140t-184.5 -379q-9 -45 -14.5 -91t-5.5 -82q0 -159 82 -248.5t227 -89.5v0zM777 1635q43 114 124 181t175 67q26 0 70 -12.5t82 -30.5q29 -13 60.5 -22.5t48.5 -9.5q34 0 67.5 24.5t47.5 60.5h130q-40 -117 -112.5 -182.5t-160.5 -65.5
q-31 0 -83 12.5t-95 30.5q-34 13 -65.5 22.5t-44.5 9.5q-33 0 -66 -24.5t-48 -60.5h-130z" />
    <glyph glyph-name="Odieresis" unicode="&#xd6;" horiz-adv-x="1593" 
d="M793 -37q-269 0 -421.5 143t-152.5 397q0 50 6.5 110t18.5 117q74 357 308 567t560 210q269 0 421 -144.5t152 -400.5q-1 -50 -7.5 -111.5t-18.5 -120.5q-73 -353 -308 -560q-233 -207 -558 -207v0zM845 220q182 0 317.5 138t184.5 373q9 44 14 91t6 86q0 161 -82 251.5
t-227 90.5q-182 0 -317.5 -140t-184.5 -379q-9 -45 -14.5 -91t-5.5 -82q0 -159 82 -248.5t227 -89.5v0zM857 1874h258l-49 -235h-258zM1259 1874h258l-49 -235h-258z" />
    <glyph glyph-name="multiply" unicode="&#xd7;" horiz-adv-x="1196" 
d="M673 358l-429 -356l-127 160l430 355l-283 355l193 160l281 -356l429 356l127 -160l-429 -355l282 -355l-193 -160z" />
    <glyph glyph-name="Oslash" unicode="&#xd8;" horiz-adv-x="1593" 
d="M938 653l-346 -306q12 -20 29 -38q82 -89 227 -89v0q182 0 317.5 138t184.5 373q9 44 14 91t6 86q-1 64 -12 116zM796 -37q-269 0 -423 143l-26 24l-203 -181l-72 72l218 193q-69 119 -68 289q0 50 6.5 110t18.5 117q74 357 308 567t560 210q269 0 421 -145l25 -23
l205 182l72 -72l-218 -193q68 -121 68 -294q-1 -50 -7.5 -111.5t-18.5 -120.5q-73 -353 -308 -560q-233 -207 -558 -207v0zM1061 1250q-182 0 -317.5 -140t-184.5 -379q-9 -45 -14.5 -91t-5.5 -82q0 -61 12 -113l421 372l344 305q-12 21 -28 38q-82 90 -227 90z" />
    <glyph glyph-name="Ugrave" unicode="&#xd9;" horiz-adv-x="1479" 
d="M1434 484q-52 -250 -237 -386q-183 -135 -472 -135q-272 0 -399 138q-88 98 -88 249q0 62 15 134l204 986v0h156h156v0l-202 -976q-9 -41 -8 -75q-1 -75 37 -123q55 -71 179 -71q143 0 234.5 70t118.5 199l202 976v0h154h154v0zM999 1620l-239 299h316l129 -299h-206z
" />
    <glyph glyph-name="Uacute" unicode="&#xda;" horiz-adv-x="1479" 
d="M1434 484q-52 -250 -237 -386q-183 -135 -472 -135q-272 0 -399 138q-88 98 -88 249q0 62 15 134l204 986v0h156h156v0l-202 -976q-9 -41 -8 -75q-1 -75 37 -123q55 -71 179 -71q143 0 234.5 70t118.5 199l202 976v0h154h154v0zM973 1620l256 297h313l-360 -297h-209z
" />
    <glyph glyph-name="Ucircumflex" unicode="&#xdb;" horiz-adv-x="1479" 
d="M1434 484q-52 -250 -237 -386q-183 -135 -472 -135q-272 0 -399 138q-88 98 -88 249q0 62 15 134l204 986v0h156h156v0l-202 -976q-9 -41 -8 -75q-1 -75 37 -123q55 -71 179 -71q143 0 234.5 70t118.5 199l202 976v0h154h154v0zM1279 1919l168 -299h-229l-95 167v0
l-164 -167h-234l300 299h127h127z" />
    <glyph glyph-name="Udieresis" unicode="&#xdc;" horiz-adv-x="1479" 
d="M1434 484q-52 -250 -237 -386q-183 -135 -472 -135q-272 0 -399 138q-88 98 -88 249q0 62 15 134l204 986v0h156h156v0l-202 -976q-9 -41 -8 -75q-1 -75 37 -123q55 -71 179 -71q143 0 234.5 70t118.5 199l202 976v0h154h154v0zM801 1874h258l-49 -235h-258zM1203 1874
h258l-49 -235h-258z" />
    <glyph glyph-name="Yacute" unicode="&#xdd;" horiz-adv-x="1366" 
d="M652 556v0l-308 914v0h181h181v0l167 -634v0l424 634v0h173h174v0l-686 -913v0l-115 -557h-153h-153zM919 1620l256 297h313l-360 -297h-209z" />
    <glyph glyph-name="Thorn" unicode="&#xde;" horiz-adv-x="1366" 
d="M156 0l304 1470v0h153h153v0l-42 -200v0l372 1q176 0 275 -89.5t99 -248.5q-1 -30 -4.5 -65.5t-10.5 -69.5q-45 -215 -194.5 -341t-359.5 -126l-371 -1v0l-68 -330v0h-153h-153v0zM1143 799q4 19 6 36.5t2 31.5q0 75 -48 114t-142 39h-288v0l-91 -438v0h288q112 0 182 56
q69 55 91 161z" />
    <glyph glyph-name="germandbls" unicode="&#xdf;" horiz-adv-x="1251" 
d="M643 1040l-215 -1040v0h-143h-144v0l215 1040l9 42q40 197 193 308t383 111q234 0 334 -104t59 -304q-30 -143 -198 -253q42 -21 72 -47q125 -109 78 -337q-45 -218 -214.5 -351.5t-402.5 -133.5q-25 0 -51 3.5t-52 9.5v0l49 227v0q67 -4 73 -4q116 0 202 70.5t110 186.5
q26 128 -38 187.5t-230 59.5l41 200q131 0 193 40t82 137q18 88 -23 133.5t-138 45.5q-106 0 -163 -52q-56 -52 -81 -175z" />
    <glyph glyph-name="glyph179" horiz-adv-x="0" 
d="M-80 0l-239 299h316l129 -299h-206z" />
    <glyph glyph-name="agrave" unicode="&#xe0;" 
d="M400 -29q-134 0 -210.5 63.5t-76.5 176.5q0 18 2.5 41t7.5 45q28 136 134 228t260 113l242 34q34 5 64 17q38 15 58 43.5t19 66.5q-1 40 -27 61q-37 29 -134 29q-74 0 -126 -38.5t-81 -114.5v0h-271v0q42 187 184 284t373 97q211 0 305 -82q70 -60 69 -162q1 -35 -8 -75
l-123 -593q-15 -72 -9 -110.5t35 -53.5v-1l-8 -39h-155h-155v0q-7 64 2 127v0q-169 -157 -371 -157zM820 396l27 132v0q-41 -23 -90 -34l-116 -23q-114 -23 -163.5 -58t-63.5 -102q-2 -10 0 0q-2 -10 -3 -20t-1 -19q0 -46 29.5 -71t82.5 -25q136 0 241 108q18 18 34 50
q17 33 23 62zM745 1238l-239 299h316l129 -299h-206z" />
    <glyph glyph-name="glyph181" horiz-adv-x="0" 
d="M-118 0l256 297h313l-360 -297h-209z" />
    <glyph glyph-name="aacute" unicode="&#xe1;" 
d="M400 -29q-134 0 -210.5 63.5t-76.5 176.5q0 18 2.5 41t7.5 45q28 136 134 228t260 113l242 34q34 5 64 17q38 15 58 43.5t19 66.5q-1 40 -27 61q-37 29 -134 29q-74 0 -126 -38.5t-81 -114.5v0h-271v0q42 187 184 284t373 97q211 0 305 -82q70 -60 69 -162q1 -35 -8 -75
l-123 -593q-15 -72 -9 -110.5t35 -53.5v-1l-8 -39h-155h-155v0q-7 64 2 127v0q-169 -157 -371 -157zM820 396l27 132v0q-41 -23 -90 -34l-116 -23q-114 -23 -163.5 -58t-63.5 -102q-2 -10 0 0q-2 -10 -3 -20t-1 -19q0 -46 29.5 -71t82.5 -25q136 0 241 108q18 18 34 50
q17 33 23 62zM707 1238l256 297h313l-360 -297h-209z" />
    <glyph glyph-name="glyph183" horiz-adv-x="0" 
d="M193 299l168 -299h-229l-95 167v0l-164 -167h-234l300 299h127h127z" />
    <glyph glyph-name="acircumflex" unicode="&#xe2;" 
d="M400 -29q-134 0 -210.5 63.5t-76.5 176.5q0 18 2.5 41t7.5 45q28 136 134 228t260 113l242 34q34 5 64 17q38 15 58 43.5t19 66.5q-1 40 -27 61q-37 29 -134 29q-74 0 -126 -38.5t-81 -114.5v0h-271v0q42 187 184 284t373 97q211 0 305 -82q70 -60 69 -162q1 -35 -8 -75
l-123 -593q-15 -72 -9 -110.5t35 -53.5v-1l-8 -39h-155h-155v0q-7 64 2 127v0q-169 -157 -371 -157zM820 396l27 132v0q-41 -23 -90 -34l-116 -23q-114 -23 -163.5 -58t-63.5 -102q-2 -10 0 0q-2 -10 -3 -20t-1 -19q0 -46 29.5 -71t82.5 -25q136 0 241 108q18 18 34 50
q17 33 23 62zM1018 1537l168 -299h-229l-95 167v0l-164 -167h-234l300 299h127h127z" />
    <glyph glyph-name="glyph185" horiz-adv-x="0" 
d="M-358 15q43 114 124 181t175 67q26 0 70 -12.5t82 -30.5q29 -13 60.5 -22.5t48.5 -9.5q34 0 67.5 24.5t47.5 60.5h130q-40 -117 -112.5 -182.5t-160.5 -65.5q-31 0 -83 12.5t-95 30.5q-34 13 -65.5 22.5t-44.5 9.5q-33 0 -66 -24.5t-48 -60.5h-130z" />
    <glyph glyph-name="atilde" unicode="&#xe3;" 
d="M400 -29q-134 0 -210.5 63.5t-76.5 176.5q0 18 2.5 41t7.5 45q28 136 134 228t260 113l242 34q34 5 64 17q38 15 58 43.5t19 66.5q-1 40 -27 61q-37 29 -134 29q-74 0 -126 -38.5t-81 -114.5v0h-271v0q42 187 184 284t373 97q211 0 305 -82q70 -60 69 -162q1 -35 -8 -75
l-123 -593q-15 -72 -9 -110.5t35 -53.5v-1l-8 -39h-155h-155v0q-7 64 2 127v0q-169 -157 -371 -157zM820 396l27 132v0q-41 -23 -90 -34l-116 -23q-114 -23 -163.5 -58t-63.5 -102q-2 -10 0 0q-2 -10 -3 -20t-1 -19q0 -46 29.5 -71t82.5 -25q136 0 241 108q18 18 34 50
q17 33 23 62zM467 1253q43 114 124 181t175 67q26 0 70 -12.5t82 -30.5q29 -13 60.5 -22.5t48.5 -9.5q34 0 67.5 24.5t47.5 60.5h130q-40 -117 -112.5 -182.5t-160.5 -65.5q-31 0 -83 12.5t-95 30.5q-34 13 -65.5 22.5t-44.5 9.5q-33 0 -66 -24.5t-48 -60.5h-130z" />
    <glyph glyph-name="glyph187" horiz-adv-x="0" 
d="M-258 254h258l-49 -235h-258zM144 254h258l-49 -235h-258z" />
    <glyph glyph-name="adieresis" unicode="&#xe4;" 
d="M400 -29q-134 0 -210.5 63.5t-76.5 176.5q0 18 2.5 41t7.5 45q28 136 134 228t260 113l242 34q34 5 64 17q38 15 58 43.5t19 66.5q-1 40 -27 61q-37 29 -134 29q-74 0 -126 -38.5t-81 -114.5v0h-271v0q42 187 184 284t373 97q211 0 305 -82q70 -60 69 -162q1 -35 -8 -75
l-123 -593q-15 -72 -9 -110.5t35 -53.5v-1l-8 -39h-155h-155v0q-7 64 2 127v0q-169 -157 -371 -157zM820 396l27 132v0q-41 -23 -90 -34l-116 -23q-114 -23 -163.5 -58t-63.5 -102q-2 -10 0 0q-2 -10 -3 -20t-1 -19q0 -46 29.5 -71t82.5 -25q136 0 241 108q18 18 34 50
q17 33 23 62zM567 1492h258l-49 -235h-258zM969 1492h258l-49 -235h-258z" />
    <glyph glyph-name="glyph189" horiz-adv-x="0" 
d="M-1 -72q-93 0 -145 62t-33 151q18 89 95 151t170 62t144 -62t33 -151q-19 -89 -95 -151t-169 -62v0zM21 42q45 0 82 28.5t46 70.5q8 42 -17 70.5t-70 28.5t-82 -28.5t-45 -70.5q-9 -42 16 -70.5t70 -28.5v0z" />
    <glyph glyph-name="aring" unicode="&#xe5;" 
d="M400 -29q-134 0 -210.5 63.5t-76.5 176.5q0 18 2.5 41t7.5 45q28 136 134 228t260 113l242 34q34 5 64 17q38 15 58 43.5t19 66.5q-1 40 -27 61q-37 29 -134 29q-74 0 -126 -38.5t-81 -114.5v0h-271v0q42 187 184 284t373 97q211 0 305 -82q70 -60 69 -162q1 -35 -8 -75
l-123 -593q-15 -72 -9 -110.5t35 -53.5v-1l-8 -39h-155h-155v0q-7 64 2 127v0q-169 -157 -371 -157zM820 396l27 132v0q-41 -23 -90 -34l-116 -23q-114 -23 -163.5 -58t-63.5 -102q-2 -10 0 0q-2 -10 -3 -20t-1 -19q0 -46 29.5 -71t82.5 -25q136 0 241 108q18 18 34 50
q17 33 23 62zM824 1166q-93 0 -145 62t-33 151q18 89 95 151t170 62t144 -62t33 -151q-19 -89 -95 -151t-169 -62v0zM846 1280q45 0 82 28.5t46 70.5q8 42 -17 70.5t-70 28.5t-82 -28.5t-45 -70.5q-9 -42 16 -70.5t70 -28.5v0z" />
    <glyph glyph-name="ae" unicode="&#xe6;" horiz-adv-x="1821" 
d="M806 1117q205 0 296 -82q17 -15 30 -33v0q150 115 352 115q195 0 295 -98t100 -286v-4q1 -48 -6 -104.5t-20 -118.5l-7 -35v0h-744v0l-2 -14q-4 -31 -4 -58q1 -99 50.5 -148t150.5 -49q73 0 132.5 31.5t84.5 82.5v0h290v0q-79 -166 -230 -256q-149 -89 -347 -89
q-185 0 -284 96q-34 34 -55 76v0l-7 -5q-188 -167 -431 -167q-165 0 -250 60t-85 174v3q0 19 2.5 41.5t7.5 46.5q26 127 117 212.5t220 105.5l294 46q51 8 94 21q24 8 41 28.5t23 50.5l1 6q14 65 -25.5 94t-142.5 29q-84 0 -133.5 -35t-80.5 -118v0h-271v0q42 187 180.5 284
t363.5 97zM839 398l24 116v0q-46 -19 -107 -31l-117 -23q-120 -24 -166 -55q-44 -30 -58 -98q-3 -16 -3 -30q0 -45 32.5 -73t85.5 -28q138 0 244 105l19 21q14 15 27 43q14 28 19 53zM1592 658v0l1 38q0 94 -44 139.5t-135 45.5q-115 0 -190 -89q-44 -52 -75 -134v0h443z
" />
    <glyph glyph-name="glyph192" horiz-adv-x="0" 
d="M39 0l-101 -111v0l60 7q82 0 123 -44t26 -116q-18 -87 -102.5 -145t-194.5 -58q-60 0 -117 14t-108 40l65 96q47 -15 87.5 -24t63.5 -9q40 0 73 23t40 57q6 30 -13 52t-51 22q-12 0 -39 -5t-46 -11l-35 41l151 171h118z" />
    <glyph glyph-name="ccedilla" unicode="&#xe7;" 
d="M1157 397v0q-69 -196 -227.5 -311t-361.5 -115q-196 0 -301 98t-105 283q0 42 5.5 90.5t15.5 97.5q56 271 225.5 424t414.5 153q209 0 314 -110q87 -90 86 -240l-4 -67v0h-290v0q-4 93 -41 134.5t-115 41.5q-112 0 -185.5 -87.5t-110.5 -262.5q-6 -33 -10 -66.5t-4 -61.5
q0 -91 40 -141t113 -50q83 0 152 52.5t99 137.5v0h290zM613 0l-101 -111v0l60 7q82 0 123 -44t26 -116q-18 -87 -102.5 -145t-194.5 -58q-60 0 -117 14t-108 40l65 96q47 -15 87.5 -24t63.5 -9q40 0 73 23t40 57q6 30 -13 52t-51 22q-12 0 -39 -5t-46 -11l-35 41l151 171
h118z" />
    <glyph glyph-name="egrave" unicode="&#xe8;" 
d="M583 -29q-213 0 -326.5 100.5t-113.5 289.5q1 40 6 86t14 93q56 271 224.5 424t411.5 153q205 0 310 -100t105 -294q0 -48 -6 -103t-19 -114l-7 -35v0h-746v0l-2 -14q-4 -30 -4 -57q1 -99 51 -148.5t151 -49.5q73 0 133 31.5t85 82.5v0h290v0q-76 -159 -226.5 -252
t-330.5 -93zM928 658v0l1 38q0 94 -44.5 139.5t-135.5 45.5q-115 0 -191 -89q-44 -52 -75 -134v0h445zM765 1238l-239 299h316l129 -299h-206z" />
    <glyph glyph-name="eacute" unicode="&#xe9;" 
d="M583 -29q-213 0 -326.5 100.5t-113.5 289.5q1 40 6 86t14 93q56 271 224.5 424t411.5 153q205 0 310 -100t105 -294q0 -48 -6 -103t-19 -114l-7 -35v0h-746v0l-2 -14q-4 -30 -4 -57q1 -99 51 -148.5t151 -49.5q73 0 133 31.5t85 82.5v0h290v0q-76 -159 -226.5 -252
t-330.5 -93zM928 658v0l1 38q0 94 -44.5 139.5t-135.5 45.5q-115 0 -191 -89q-44 -52 -75 -134v0h445zM727 1238l256 297h313l-360 -297h-209z" />
    <glyph glyph-name="ecircumflex" unicode="&#xea;" 
d="M583 -29q-213 0 -326.5 100.5t-113.5 289.5q1 40 6 86t14 93q56 271 224.5 424t411.5 153q205 0 310 -100t105 -294q0 -48 -6 -103t-19 -114l-7 -35v0h-746v0l-2 -14q-4 -30 -4 -57q1 -99 51 -148.5t151 -49.5q73 0 133 31.5t85 82.5v0h290v0q-76 -159 -226.5 -252
t-330.5 -93zM928 658v0l1 38q0 94 -44.5 139.5t-135.5 45.5q-115 0 -191 -89q-44 -52 -75 -134v0h445zM1038 1537l168 -299h-229l-95 167v0l-164 -167h-234l300 299h127h127z" />
    <glyph glyph-name="edieresis" unicode="&#xeb;" 
d="M583 -29q-213 0 -326.5 100.5t-113.5 289.5q1 40 6 86t14 93q56 271 224.5 424t411.5 153q205 0 310 -100t105 -294q0 -48 -6 -103t-19 -114l-7 -35v0h-746v0l-2 -14q-4 -30 -4 -57q1 -99 51 -148.5t151 -49.5q73 0 133 31.5t85 82.5v0h290v0q-76 -159 -226.5 -252
t-330.5 -93zM928 658v0l1 38q0 94 -44.5 139.5t-135.5 45.5q-115 0 -191 -89q-44 -52 -75 -134v0h445zM587 1492h258l-49 -235h-258zM989 1492h258l-49 -235h-258z" />
    <glyph glyph-name="dotlessi" unicode="&#x131;" horiz-adv-x="569" 
d="M141 0l225 1088v0h143h144v0l-225 -1088v0h-143h-144v0z" />
    <glyph glyph-name="igrave" unicode="&#xec;" horiz-adv-x="569" 
d="M141 0l225 1088v0h143h144v0l-225 -1088v0h-143h-144v0zM460 1238l-239 299h316l129 -299h-206z" />
    <glyph glyph-name="iacute" unicode="&#xed;" horiz-adv-x="569" 
d="M141 0l225 1088v0h143h144v0l-225 -1088v0h-143h-144v0zM422 1238l256 297h313l-360 -297h-209z" />
    <glyph glyph-name="icircumflex" unicode="&#xee;" horiz-adv-x="569" 
d="M141 0l225 1088v0h143h144v0l-225 -1088v0h-143h-144v0zM733 1537l168 -299h-229l-95 167v0l-164 -167h-234l300 299h127h127z" />
    <glyph glyph-name="idieresis" unicode="&#xef;" horiz-adv-x="569" 
d="M141 0l225 1088v0h143h144v0l-225 -1088v0h-143h-144v0zM282 1492h258l-49 -235h-258zM684 1492h258l-49 -235h-258z" />
    <glyph glyph-name="eth" unicode="&#xf0;" horiz-adv-x="1251" 
d="M629 -29q-213 0 -337 109t-124 297q0 31 4 69.5t11 73.5q53 256 222.5 406t406.5 150q134 1 216 -94v0q-13 42 -31 80q-38 79 -96 151l-247 -96l-104 104l245 96q-58 50 -131 95l239 102q75 -46 138 -101l244 95l104 -104l-247 -96q73 -87 121 -192q75 -165 75 -337
q0 -86 -18 -173q-60 -292 -246.5 -463.5t-444.5 -171.5zM477 505q-4 -21 -7 -44t-3 -41q1 -96 57.5 -152t153.5 -56q121 0 210.5 88t120.5 237q4 22 7 45.5t3 41.5q0 97 -57.5 154t-154.5 57q-126 0 -211 -86q-86 -86 -119 -244z" />
    <glyph glyph-name="ntilde" unicode="&#xf1;" horiz-adv-x="1251" 
d="M133 0l225 1088v0h139h139v0l-32 -156v0v0l40 45q136 140 330 140q176 0 255 -99.5t42 -275.5l-153 -742v0h-143h-144v0l139 672q21 104 -12 154t-123 50q-110 0 -186 -66.5t-100 -184.5v0l-129 -625v0h-143h-144v0zM523 1253q43 114 124 181t175 67q26 0 70 -12.5
t82 -30.5q29 -13 60.5 -22.5t48.5 -9.5q34 0 67.5 24.5t47.5 60.5h130q-40 -117 -112.5 -182.5t-160.5 -65.5q-31 0 -83 12.5t-95 30.5q-34 13 -65.5 22.5t-44.5 9.5q-33 0 -66 -24.5t-48 -60.5h-130z" />
    <glyph glyph-name="ograve" unicode="&#xf2;" horiz-adv-x="1251" 
d="M625 -29q-211 0 -333.5 111.5t-123.5 303.5q0 33 4.5 74.5t12.5 79.5q55 265 237.5 421t439.5 156q211 0 333.5 -113t122.5 -307q0 -34 -5 -76t-13 -81q-54 -262 -236.5 -415.5t-438.5 -153.5v0zM674 212q131 0 214 86t119 259q6 28 9 56t3 51q0 101 -54 156.5t-153 55.5
q-130 0 -213 -87.5t-120 -263.5q-5 -27 -8.5 -54t-2.5 -50q0 -100 53.5 -154.5t152.5 -54.5v0zM807 1238l-239 299h316l129 -299h-206z" />
    <glyph glyph-name="oacute" unicode="&#xf3;" horiz-adv-x="1251" 
d="M625 -29q-211 0 -333.5 111.5t-123.5 303.5q0 33 4.5 74.5t12.5 79.5q55 265 237.5 421t439.5 156q211 0 333.5 -113t122.5 -307q0 -34 -5 -76t-13 -81q-54 -262 -236.5 -415.5t-438.5 -153.5v0zM674 212q131 0 214 86t119 259q6 28 9 56t3 51q0 101 -54 156.5t-153 55.5
q-130 0 -213 -87.5t-120 -263.5q-5 -27 -8.5 -54t-2.5 -50q0 -100 53.5 -154.5t152.5 -54.5v0zM769 1238l256 297h313l-360 -297h-209z" />
    <glyph glyph-name="ocircumflex" unicode="&#xf4;" horiz-adv-x="1251" 
d="M625 -29q-211 0 -333.5 111.5t-123.5 303.5q0 33 4.5 74.5t12.5 79.5q55 265 237.5 421t439.5 156q211 0 333.5 -113t122.5 -307q0 -34 -5 -76t-13 -81q-54 -262 -236.5 -415.5t-438.5 -153.5v0zM674 212q131 0 214 86t119 259q6 28 9 56t3 51q0 101 -54 156.5t-153 55.5
q-130 0 -213 -87.5t-120 -263.5q-5 -27 -8.5 -54t-2.5 -50q0 -100 53.5 -154.5t152.5 -54.5v0zM1080 1537l168 -299h-229l-95 167v0l-164 -167h-234l300 299h127h127z" />
    <glyph glyph-name="otilde" unicode="&#xf5;" horiz-adv-x="1251" 
d="M625 -29q-211 0 -333.5 111.5t-123.5 303.5q0 33 4.5 74.5t12.5 79.5q55 265 237.5 421t439.5 156q211 0 333.5 -113t122.5 -307q0 -34 -5 -76t-13 -81q-54 -262 -236.5 -415.5t-438.5 -153.5v0zM674 212q131 0 214 86t119 259q6 28 9 56t3 51q0 101 -54 156.5t-153 55.5
q-130 0 -213 -87.5t-120 -263.5q-5 -27 -8.5 -54t-2.5 -50q0 -100 53.5 -154.5t152.5 -54.5v0zM529 1253q43 114 124 181t175 67q26 0 70 -12.5t82 -30.5q29 -13 60.5 -22.5t48.5 -9.5q34 0 67.5 24.5t47.5 60.5h130q-40 -117 -112.5 -182.5t-160.5 -65.5q-31 0 -83 12.5
t-95 30.5q-34 13 -65.5 22.5t-44.5 9.5q-33 0 -66 -24.5t-48 -60.5h-130z" />
    <glyph glyph-name="odieresis" unicode="&#xf6;" horiz-adv-x="1251" 
d="M625 -29q-211 0 -333.5 111.5t-123.5 303.5q0 33 4.5 74.5t12.5 79.5q55 265 237.5 421t439.5 156q211 0 333.5 -113t122.5 -307q0 -34 -5 -76t-13 -81q-54 -262 -236.5 -415.5t-438.5 -153.5v0zM674 212q131 0 214 86t119 259q6 28 9 56t3 51q0 101 -54 156.5t-153 55.5
q-130 0 -213 -87.5t-120 -263.5q-5 -27 -8.5 -54t-2.5 -50q0 -100 53.5 -154.5t152.5 -54.5v0zM629 1492h258l-49 -235h-258zM1031 1492h258l-49 -235h-258z" />
    <glyph glyph-name="divide" unicode="&#xf7;" horiz-adv-x="1196" 
d="M656 274q76 0 117.5 -52.5t26.5 -128.5q-16 -76 -79 -128.5t-139 -52.5t-118 52.5t-26 128.5q15 76 78.5 128.5t139.5 52.5zM215 630h1030l-47 -226h-1030zM832 1122q76 0 117.5 -52.5t25.5 -128.5q-15 -76 -78.5 -128.5t-139.5 -52.5t-117.5 52.5t-26.5 128.5
q16 76 79.5 128.5t139.5 52.5z" />
    <glyph glyph-name="oslash" unicode="&#xf8;" horiz-adv-x="1251" 
d="M733 475l-223 -189q5 -11 16 -20q53 -54 152 -54v0q131 0 214 86t119 259q6 28 9 56t3 51q1 29 -5 52zM629 -29q-211 0 -334 112l-12 11l-174 -148l-64 57l186 157q-59 94 -59 226q0 33 4.5 74.5t12.5 79.5q55 265 237.5 421t439.5 156q211 0 333 -113l14 -13l178 151
l57 -62l-183 -155q56 -95 57 -228q0 -34 -5 -76t-13 -81q-54 -262 -236.5 -415.5t-438.5 -153.5v0zM816 876q-130 0 -213 -87.5t-120 -263.5q-5 -27 -8.5 -54t-3 -53t4.5 -51l284 241l225 190q-5 15 -16 23q-54 55 -153 55z" />
    <glyph glyph-name="ugrave" unicode="&#xf9;" horiz-adv-x="1251" 
d="M648 1088l-139 -672q-22 -104 11 -154t123 -50q110 0 186 66.5t100 184.5v0l130 625v0h143h144v0l-225 -1088v0h-139h-139v0l32 159v0v0q-17 -24 -41 -48q-135 -140 -329 -140q-176 0 -254 110q-50 71 -50 180q0 56 14 123l146 704v0h143h144v0zM804 1238l-239 299h316
l129 -299h-206z" />
    <glyph glyph-name="uacute" unicode="&#xfa;" horiz-adv-x="1251" 
d="M648 1088l-139 -672q-22 -104 11 -154t123 -50q110 0 186 66.5t100 184.5v0l130 625v0h143h144v0l-225 -1088v0h-139h-139v0l32 159v0v0q-17 -24 -41 -48q-135 -140 -329 -140q-176 0 -254 110q-50 71 -50 180q0 56 14 123l146 704v0h143h144v0zM766 1238l256 297h313
l-360 -297h-209z" />
    <glyph glyph-name="ucircumflex" unicode="&#xfb;" horiz-adv-x="1251" 
d="M648 1088l-139 -672q-22 -104 11 -154t123 -50q110 0 186 66.5t100 184.5v0l130 625v0h143h144v0l-225 -1088v0h-139h-139v0l32 159v0v0q-17 -24 -41 -48q-135 -140 -329 -140q-176 0 -254 110q-50 71 -50 180q0 56 14 123l146 704v0h143h144v0zM1077 1537l168 -299h-229
l-95 167v0l-164 -167h-234l300 299h127h127z" />
    <glyph glyph-name="udieresis" unicode="&#xfc;" horiz-adv-x="1251" 
d="M648 1088l-139 -672q-22 -104 11 -154t123 -50q110 0 186 66.5t100 184.5v0l130 625v0h143h144v0l-225 -1088v0h-139h-139v0l32 159v0v0q-17 -24 -41 -48q-135 -140 -329 -140q-176 0 -254 110q-50 71 -50 180q0 56 14 123l146 704v0h143h144v0zM626 1492h258l-49 -235
h-258zM1028 1492h258l-49 -235h-258z" />
    <glyph glyph-name="yacute" unicode="&#xfd;" 
d="M1335 1088l-593 -1080q-164 -301 -256 -382t-267 -81q-79 0 -133 7l47 228q9 -4 56 -4q117 0 160 45q29 29 73 130v0l-172 1137v0h160h160v0l66 -812v0v0l397 812v0h151h151v0zM705 1238l256 297h313l-360 -297h-209z" />
    <glyph glyph-name="thorn" unicode="&#xfe;" horiz-adv-x="1251" 
d="M429 1470v0h143h144v0l-107 -516l1 1q162 162 356 162q166 0 259.5 -101.5t93.5 -280.5q-1 -41 -6.5 -92.5t-15.5 -100.5q-51 -246 -205.5 -408.5t-336.5 -162.5q-215 0 -306 154l-9 15v0l-116 -566v0h-143h-144v0zM689 207q109 0 194 89t115 235q7 32 11 64.5t3 60.5
q0 101 -48.5 156.5t-137.5 55.5q-106 0 -192 -89t-114 -228v0h1v0q-35 -165 9 -254.5t159 -89.5z" />
    <glyph glyph-name="ydieresis" unicode="&#xff;" 
d="M1335 1088l-593 -1080q-164 -301 -256 -382t-267 -81q-79 0 -133 7l47 228q9 -4 56 -4q117 0 160 45q29 29 73 130v0l-172 1137v0h160h160v0l66 -812v0v0l397 812v0h151h151v0zM565 1492h258l-49 -235h-258zM967 1492h258l-49 -235h-258z" />
    <glyph glyph-name="glyph219" horiz-adv-x="0" 
d="M-281 191h640l-33 -159h-640z" />
    <glyph glyph-name="Amacron" unicode="&#x100;" horiz-adv-x="1479" 
d="M41 0l841 1470h177h177l206 -1470v0h-167h-168v0l-34 308v0h-543v0l-164 -308v0h-162h-163v0zM983 1146l-320 -595v0h386v0l-66 595v0v0zM809 1811h640l-33 -159h-640z" />
    <glyph glyph-name="glyph221" horiz-adv-x="0" 
d="M-281 191h640l-33 -159h-640z" />
    <glyph glyph-name="amacron" unicode="&#x101;" 
d="M400 -29q-134 0 -210.5 63.5t-76.5 176.5q0 18 2.5 41t7.5 45q28 136 134 228t260 113l242 34q34 5 64 17q38 15 58 43.5t19 66.5q-1 40 -27 61q-37 29 -134 29q-74 0 -126 -38.5t-81 -114.5v0h-271v0q42 187 184 284t373 97q211 0 305 -82q70 -60 69 -162q1 -35 -8 -75
l-123 -593q-15 -72 -9 -110.5t35 -53.5v-1l-8 -39h-155h-155v0q-7 64 2 127v0q-169 -157 -371 -157zM820 396l27 132v0q-41 -23 -90 -34l-116 -23q-114 -23 -163.5 -58t-63.5 -102q-2 -10 0 0q-2 -10 -3 -20t-1 -19q0 -46 29.5 -71t82.5 -25q136 0 241 108q18 18 34 50
q17 33 23 62zM544 1429h640l-33 -159h-640z" />
    <glyph glyph-name="glyph223" horiz-adv-x="0" 
d="M-21 0q-144 0 -209.5 74t-53.5 223h135q-2 -76 40 -110t137 -34q109 0 164 32.5t79 111.5h135q-45 -149 -151.5 -223t-275.5 -74z" />
    <glyph glyph-name="Abreve" unicode="&#x102;" horiz-adv-x="1479" 
d="M41 0l841 1470h177h177l206 -1470v0h-167h-168v0l-34 308v0h-543v0l-164 -308v0h-162h-163v0zM983 1146l-320 -595v0h386v0l-66 595v0v0zM1069 1620q-144 0 -209.5 74t-53.5 223h135q-2 -76 40 -110t137 -34q109 0 164 32.5t79 111.5h135q-45 -149 -151.5 -223
t-275.5 -74z" />
    <glyph glyph-name="glyph225" horiz-adv-x="0" 
d="M-21 0q-144 0 -209.5 74t-53.5 223h135q-2 -76 40 -110t137 -34q109 0 164 32.5t79 111.5h135q-45 -149 -151.5 -223t-275.5 -74z" />
    <glyph glyph-name="abreve" unicode="&#x103;" 
d="M400 -29q-134 0 -210.5 63.5t-76.5 176.5q0 18 2.5 41t7.5 45q28 136 134 228t260 113l242 34q34 5 64 17q38 15 58 43.5t19 66.5q-1 40 -27 61q-37 29 -134 29q-74 0 -126 -38.5t-81 -114.5v0h-271v0q42 187 184 284t373 97q211 0 305 -82q70 -60 69 -162q1 -35 -8 -75
l-123 -593q-15 -72 -9 -110.5t35 -53.5v-1l-8 -39h-155h-155v0q-7 64 2 127v0q-169 -157 -371 -157zM820 396l27 132v0q-41 -23 -90 -34l-116 -23q-114 -23 -163.5 -58t-63.5 -102q-2 -10 0 0q-2 -10 -3 -20t-1 -19q0 -46 29.5 -71t82.5 -25q136 0 241 108q18 18 34 50
q17 33 23 62zM804 1238q-144 0 -209.5 74t-53.5 223h135q-2 -76 40 -110t137 -34q109 0 164 32.5t79 111.5h135q-45 -149 -151.5 -223t-275.5 -74z" />
    <glyph glyph-name="glyph227" horiz-adv-x="0" 
d="M-301 -276q19 90 97.5 166t189.5 110h176q-113 -60 -181.5 -124.5t-80.5 -124.5q-9 -43 11.5 -73t58.5 -30q39 0 82 10t80 27l15 -102q-60 -23 -125 -37q-63 -14 -109 -14q-109 0 -170 55q-61 54 -44 137z" />
    <glyph glyph-name="Aogonek" unicode="&#x104;" horiz-adv-x="1479" 
d="M41 0l841 1470h177h177l206 -1470v0h-167h-168v0l-34 308v0h-543v0l-164 -308v0h-162h-163v0zM983 1146l-320 -595v0h386v0l-66 595v0v0zM806 -276q19 90 97.5 166t189.5 110h176q-113 -60 -181.5 -124.5t-80.5 -124.5q-9 -43 11.5 -73t58.5 -30q39 0 82 10t80 27
l15 -102q-60 -23 -125 -37q-63 -14 -109 -14q-109 0 -170 55q-61 54 -44 137z" />
    <glyph glyph-name="glyph229" horiz-adv-x="0" 
d="M-301 -276q19 90 97.5 166t189.5 110h176q-113 -60 -181.5 -124.5t-80.5 -124.5q-9 -43 11.5 -73t58.5 -30q39 0 82 10t80 27l15 -102q-60 -23 -125 -37q-63 -14 -109 -14q-109 0 -170 55q-61 54 -44 137z" />
    <glyph glyph-name="aogonek" unicode="&#x105;" 
d="M400 -29q-134 0 -210.5 63.5t-76.5 176.5q0 18 2.5 41t7.5 45q28 136 134 228t260 113l242 34q34 5 64 17q38 15 58 43.5t19 66.5q-1 40 -27 61q-37 29 -134 29q-74 0 -126 -38.5t-81 -114.5v0h-271v0q42 187 184 284t373 97q211 0 305 -82q70 -60 69 -162q1 -35 -8 -75
l-123 -593q-15 -72 -9 -110.5t35 -53.5v-1l-8 -39h-155h-155v0q-7 64 2 127v0q-169 -157 -371 -157zM820 396l27 132v0q-41 -23 -90 -34l-116 -23q-114 -23 -163.5 -58t-63.5 -102q-2 -10 0 0q-2 -10 -3 -20t-1 -19q0 -46 29.5 -71t82.5 -25q136 0 241 108q18 18 34 50
q17 33 23 62zM493 -276q19 90 97.5 166t189.5 110h176q-113 -60 -181.5 -124.5t-80.5 -124.5q-9 -43 11.5 -73t58.5 -30q39 0 82 10t80 27l15 -102q-60 -23 -125 -37q-63 -14 -109 -14q-109 0 -170 55q-61 54 -44 137z" />
    <glyph glyph-name="Cacute" unicode="&#x106;" horiz-adv-x="1479" 
d="M1498 500v0q-86 -247 -282.5 -392t-445.5 -145q-258 0 -404.5 141.5t-146.5 392.5q1 50 7.5 111.5t19.5 121.5q74 357 297.5 567t531.5 210q280 0 416 -133q122 -119 122 -334l-2 -55v0h-307v0q-7 143 -68 201.5t-202 58.5q-171 0 -299 -139t-177 -375q-10 -46 -15 -93
t-5 -85q0 -154 75.5 -241t209.5 -87q122 0 223 75.5t145 199.5v0h307zM992 1620l256 297h313l-360 -297h-209z" />
    <glyph glyph-name="cacute" unicode="&#x107;" 
d="M1157 397v0q-69 -196 -227.5 -311t-361.5 -115q-196 0 -301 98t-105 283q0 42 5.5 90.5t15.5 97.5q56 271 225.5 424t414.5 153q209 0 314 -110q87 -90 86 -240l-4 -67v0h-290v0q-4 93 -41 134.5t-115 41.5q-112 0 -185.5 -87.5t-110.5 -262.5q-6 -33 -10 -66.5t-4 -61.5
q0 -91 40 -141t113 -50q83 0 152 52.5t99 137.5v0h290zM730 1238l256 297h313l-360 -297h-209z" />
    <glyph glyph-name="glyph233" horiz-adv-x="0" 
d="M-134 1l-167 299h229l94 -167v0l165 167h234l-301 -299h-127h-127z" />
    <glyph glyph-name="Ccaron" unicode="&#x10c;" horiz-adv-x="1479" 
d="M1498 500v0q-86 -247 -282.5 -392t-445.5 -145q-258 0 -404.5 141.5t-146.5 392.5q1 50 7.5 111.5t19.5 121.5q74 357 297.5 567t531.5 210q280 0 416 -133q122 -119 122 -334l-2 -55v0h-307v0q-7 143 -68 201.5t-202 58.5q-171 0 -299 -139t-177 -375q-10 -46 -15 -93
t-5 -85q0 -154 75.5 -241t209.5 -87q122 0 223 75.5t145 199.5v0h307zM964 1621l-167 299h229l94 -167v0l165 167h234l-301 -299h-127h-127z" />
    <glyph glyph-name="glyph235" horiz-adv-x="0" 
d="M-127 1l-167 299h229l94 -167v0l165 167h234l-301 -299h-127h-127z" />
    <glyph glyph-name="ccaron" unicode="&#x10d;" 
d="M1157 397v0q-69 -196 -227.5 -311t-361.5 -115q-196 0 -301 98t-105 283q0 42 5.5 90.5t15.5 97.5q56 271 225.5 424t414.5 153q209 0 314 -110q87 -90 86 -240l-4 -67v0h-290v0q-4 93 -41 134.5t-115 41.5q-112 0 -185.5 -87.5t-110.5 -262.5q-6 -33 -10 -66.5t-4 -61.5
q0 -91 40 -141t113 -50q83 0 152 52.5t99 137.5v0h290zM721 1239l-167 299h229l94 -167v0l165 167h234l-301 -299h-127h-127z" />
    <glyph glyph-name="Dcaron" unicode="&#x10e;" horiz-adv-x="1479" 
d="M156 0l304 1470v0h153v0h373q295 0 447 -124t152 -365q-1 -50 -7 -106t-18 -114q-86 -411 -279 -586t-562 -175h-410v0h-153v0zM512 244v0h257q201 0 307 100t155 334q14 69 20.5 124.5t7.5 106.5q-1 161 -79.5 236.5t-245.5 75.5h-220v0zM856 1621l-167 299h229l94 -167
v0l165 167h234l-301 -299h-127h-127z" />
    <glyph glyph-name="glyph238" horiz-adv-x="0" 
d="M-325 -29q-165 0 -258.5 105.5t-93.5 292.5q0 45 6.5 101.5t17.5 111.5q48 230 205 382.5t347 152.5q208 0 292 -157l5 -9v0l108 519v0h143h144v0l-304 -1470v0h-143h-144v0l25 123v0q-158 -152 -350 -152zM-52 869q-110 0 -196 -90.5t-117 -238.5q-7 -33 -10.5 -65
t-3.5 -57q0 -101 49.5 -156t139.5 -55q111 0 197 87.5t115 230.5q34 165 -11 254.5t-163 89.5z" />
    <glyph glyph-name="glyph239" horiz-adv-x="0" 
d="M124 446l27 133h131h130l-42 -203q-33 -159 -116.5 -251t-224.5 -125v0l25 122v0q80 24 117 80q26 38 46 111v0h-121z" />
    <glyph glyph-name="dcaron" unicode="&#x10f;" horiz-adv-x="1515" 
d="M473 -29q-165 0 -258.5 105.5t-93.5 292.5q0 45 6.5 101.5t17.5 111.5q48 230 205 382.5t347 152.5q208 0 292 -157l5 -9v0l108 519v0h143h144v0l-304 -1470v0h-143h-144v0l25 123v0q-158 -152 -350 -152zM746 869q-110 0 -196 -90.5t-117 -238.5q-7 -33 -10.5 -65
t-3.5 -57q0 -101 49.5 -156t139.5 -55q111 0 197 87.5t115 230.5q34 165 -11 254.5t-163 89.5zM1495 1337l27 133h131h130l-42 -203q-33 -159 -116.5 -251t-224.5 -125v0l25 122v0q80 24 117 80q26 38 46 111v0h-121z" />
    <glyph glyph-name="Dcroat" unicode="&#x110;" horiz-adv-x="1479" 
d="M159 0v0l133 645v0h-165l53 256h165v0l118 569v0h153v0h372q294 0 445.5 -124t151.5 -365q-1 -50 -7 -106t-18 -115q-86 -410 -278.5 -585t-560.5 -175h-409v0h-153zM717 1221v0l-66 -320v0h332l-53 -256h-332v0l-83 -401v0h256q200 0 305.5 100t154.5 334
q14 69 20.5 125t7.5 107q0 160 -78 235.5t-245 75.5h-219z" />
    <glyph glyph-name="dcroat" unicode="&#x111;" horiz-adv-x="1251" 
d="M520 -29q-165 0 -258.5 105.5t-93.5 292.5q0 45 6.5 101.5t17.5 111.5q48 230 205 382.5t347 152.5q208 0 292 -157l5 -9v0l51 246h-337l41 194h337l16 79v0h143h144v0l-16 -79h149l-41 -194h-149l-247 -1197v0h-143h-144v0l25 123v0q-158 -152 -350 -152zM793 869
q-110 0 -196 -90.5t-117 -238.5q-7 -33 -10.5 -65t-3.5 -57q0 -101 49.5 -156t139.5 -55q111 0 197 87.5t115 230.5q34 165 -11 254.5t-163 89.5z" />
    <glyph glyph-name="Emacron" unicode="&#x112;" horiz-adv-x="1366" 
d="M156 0v0l304 1470v0h1085v0l-25 -131l-25 -131v0h-783v0l-64 -305v0h723l-27 -131l-27 -131v0h-723v0l-78 -379v0h817v0l-29 -131l-29 -131v0h-1119zM743 1811h640l-33 -159h-640z" />
    <glyph glyph-name="emacron" unicode="&#x113;" 
d="M583 -29q-213 0 -326.5 100.5t-113.5 289.5q1 40 6 86t14 93q56 271 224.5 424t411.5 153q205 0 310 -100t105 -294q0 -48 -6 -103t-19 -114l-7 -35v0h-746v0l-2 -14q-4 -30 -4 -57q1 -99 51 -148.5t151 -49.5q73 0 133 31.5t85 82.5v0h290v0q-76 -159 -226.5 -252
t-330.5 -93zM928 658v0l1 38q0 94 -44.5 139.5t-135.5 45.5q-115 0 -191 -89q-44 -52 -75 -134v0h445zM564 1429h640l-33 -159h-640z" />
    <glyph glyph-name="glyph245" horiz-adv-x="0" 
d="M-77 255h258l-49 -236h-258z" />
    <glyph glyph-name="Edotaccent" unicode="&#x116;" horiz-adv-x="1366" 
d="M156 0v0l304 1470v0h1085v0l-25 -131l-25 -131v0h-783v0l-64 -305v0h723l-27 -131l-27 -131v0h-723v0l-78 -379v0h817v0l-29 -131l-29 -131v0h-1119zM947 1875h258l-49 -236h-258z" />
    <glyph glyph-name="glyph247" horiz-adv-x="0" 
d="M-77 255h258l-49 -236h-258z" />
    <glyph glyph-name="edotaccent" unicode="&#x117;" 
d="M583 -29q-213 0 -326.5 100.5t-113.5 289.5q1 40 6 86t14 93q56 271 224.5 424t411.5 153q205 0 310 -100t105 -294q0 -48 -6 -103t-19 -114l-7 -35v0h-746v0l-2 -14q-4 -30 -4 -57q1 -99 51 -148.5t151 -49.5q73 0 133 31.5t85 82.5v0h290v0q-76 -159 -226.5 -252
t-330.5 -93zM928 658v0l1 38q0 94 -44.5 139.5t-135.5 45.5q-115 0 -191 -89q-44 -52 -75 -134v0h445zM768 1493h258l-49 -236h-258z" />
    <glyph glyph-name="Eogonek" unicode="&#x118;" horiz-adv-x="1366" 
d="M156 0v0l304 1470v0h1085v0l-25 -131l-25 -131v0h-783v0l-64 -305v0h723l-27 -131l-27 -131v0h-723v0l-78 -379v0h817v0l-29 -131l-29 -131v0h-1119zM750 -276q19 90 97.5 166t189.5 110h176q-113 -60 -181.5 -124.5t-80.5 -124.5q-9 -43 11.5 -73t58.5 -30q39 0 82 10
t80 27l15 -102q-60 -23 -125 -37q-63 -14 -109 -14q-109 0 -170 55q-61 54 -44 137z" />
    <glyph glyph-name="eogonek" unicode="&#x119;" 
d="M583 -29q-213 0 -326.5 100.5t-113.5 289.5q1 40 6 86t14 93q56 271 224.5 424t411.5 153q205 0 310 -100t105 -294q0 -48 -6 -103t-19 -114l-7 -35v0h-746v0l-2 -14q-4 -30 -4 -57q1 -99 51 -148.5t151 -49.5q73 0 133 31.5t85 82.5v0h290v0q-76 -159 -226.5 -252
t-330.5 -93zM928 658v0l1 38q0 94 -44.5 139.5t-135.5 45.5q-115 0 -191 -89q-44 -52 -75 -134v0h445zM275 -276q19 90 97.5 166t189.5 110h176q-113 -60 -181.5 -124.5t-80.5 -124.5q-9 -43 11.5 -73t58.5 -30q39 0 82 10t80 27l15 -102q-60 -23 -125 -37q-63 -14 -109 -14
q-109 0 -170 55q-61 54 -44 137z" />
    <glyph glyph-name="Ecaron" unicode="&#x11a;" horiz-adv-x="1366" 
d="M156 0v0l304 1470v0h1085v0l-25 -131l-25 -131v0h-783v0l-64 -305v0h723l-27 -131l-27 -131v0h-723v0l-78 -379v0h817v0l-29 -131l-29 -131v0h-1119zM890 1621l-167 299h229l94 -167v0l165 167h234l-301 -299h-127h-127z" />
    <glyph glyph-name="ecaron" unicode="&#x11b;" 
d="M583 -29q-213 0 -326.5 100.5t-113.5 289.5q1 40 6 86t14 93q56 271 224.5 424t411.5 153q205 0 310 -100t105 -294q0 -48 -6 -103t-19 -114l-7 -35v0h-746v0l-2 -14q-4 -30 -4 -57q1 -99 51 -148.5t151 -49.5q73 0 133 31.5t85 82.5v0h290v0q-76 -159 -226.5 -252
t-330.5 -93zM928 658v0l1 38q0 94 -44.5 139.5t-135.5 45.5q-115 0 -191 -89q-44 -52 -75 -134v0h445zM718 1239l-167 299h229l94 -167v0l165 167h234l-301 -299h-127h-127z" />
    <glyph glyph-name="Gbreve" unicode="&#x11e;" horiz-adv-x="1593" 
d="M783 -37q-263 0 -412.5 142.5t-149.5 394.5q0 50 7 111t19 119q74 357 312 567t570 210q279 0 416.5 -125.5t120.5 -367.5v0h-306v0q-5 114 -76.5 178t-192.5 64q-195 0 -338.5 -141t-192.5 -381q-10 -47 -15 -93t-6 -86q0 -163 87 -249t250 -86q172 0 303 139
q74 79 120 187v0h-341l51 248h612l-164 -790h-204l9 188v0l-20 -22q-196 -207 -459 -207zM1131 1620q-144 0 -209.5 74t-53.5 223h135q-2 -76 40 -110t137 -34q109 0 164 32.5t79 111.5h135q-45 -149 -151.5 -223t-275.5 -74z" />
    <glyph glyph-name="gbreve" unicode="&#x11f;" horiz-adv-x="1251" 
d="M575 -229q121 0 192.5 62t97.5 192l31 153v0q-21 -31 -45 -56q-121 -128 -299 -128q-176 0 -275.5 102.5t-100.5 283.5q0 39 5.5 87t15.5 95q49 239 214 397t365 158q184 0 257 -137q16 -29 27 -66v0l36 174v0h270l-214 -1031q-52 -256 -207.5 -379.5t-425.5 -123.5
q-229 0 -344 84.5t-97 241.5v0h312v0q0 -60 41.5 -84.5t143.5 -24.5zM801 868q-107 0 -190.5 -87t-112.5 -230q-7 -31 -10 -61.5t-4 -55.5q0 -97 48 -150.5t136 -53.5q108 0 191 84t111 222q33 159 -11 245.5t-158 86.5zM780 1238q-144 0 -209.5 74t-53.5 223h135
q-2 -76 40 -110t137 -34q109 0 164 32.5t79 111.5h135q-45 -149 -151.5 -223t-275.5 -74z" />
    <glyph glyph-name="glyph255" horiz-adv-x="0" 
d="M100 446l27 133h131h130l-42 -203q-33 -159 -116.5 -251t-224.5 -125v0l25 122v0q80 24 117 80q26 38 46 111v0h-121z" />
    <glyph glyph-name="Gcommaaccent" unicode="&#x122;" horiz-adv-x="1593" 
d="M783 -37q-263 0 -412.5 142.5t-149.5 394.5q0 50 7 111t19 119q74 357 312 567t570 210q279 0 416.5 -125.5t120.5 -367.5v0h-306v0q-5 114 -76.5 178t-192.5 64q-195 0 -338.5 -141t-192.5 -381q-10 -47 -15 -93t-6 -86q0 -163 87 -249t250 -86q172 0 303 139
q74 79 120 187v0h-341l51 248h612l-164 -790h-204l9 188v0l-20 -22q-196 -207 -459 -207zM607 -283l27 133h131h130l-42 -203q-33 -159 -116.5 -251t-224.5 -125v0l25 122v0q80 24 117 80q26 38 46 111v0h-121z" />
    <glyph glyph-name="glyph257" horiz-adv-x="0" 
d="M156 133l-27 -133h-131h-130l42 203q32 159 116 251t225 125v0l-25 -122v0q-80 -24 -117 -80q-26 -38 -46 -111v0h121z" />
    <glyph glyph-name="gcommaaccent" unicode="&#x123;" horiz-adv-x="1251" 
d="M575 -229q121 0 192.5 62t97.5 192l31 153v0q-21 -31 -45 -56q-121 -128 -299 -128q-176 0 -275.5 102.5t-100.5 283.5q0 39 5.5 87t15.5 95q49 239 214 397t365 158q184 0 257 -137q16 -29 27 -66v0l36 174v0h270l-214 -1031q-52 -256 -207.5 -379.5t-425.5 -123.5
q-229 0 -344 84.5t-97 241.5v0h312v0q0 -60 41.5 -84.5t143.5 -24.5zM801 868q-107 0 -190.5 -87t-112.5 -230q-7 -31 -10 -61.5t-4 -55.5q0 -97 48 -150.5t136 -53.5q108 0 191 84t111 222q33 159 -11 245.5t-158 86.5zM957 1371l-27 -133h-131h-130l42 203q32 159 116 251
t225 125v0l-25 -122v0q-80 -24 -117 -80q-26 -38 -46 -111v0h121z" />
    <glyph glyph-name="Imacron" unicode="&#x12a;" horiz-adv-x="569" 
d="M131 0l304 1470v0h153h153v0l-304 -1470v0h-153h-153v0zM338 1811h640l-33 -159h-640z" />
    <glyph glyph-name="imacron" unicode="&#x12b;" horiz-adv-x="569" 
d="M141 0l225 1088v0h143h144v0l-225 -1088v0h-143h-144v0zM259 1429h640l-33 -159h-640z" />
    <glyph glyph-name="Iogonek" unicode="&#x12e;" horiz-adv-x="569" 
d="M135 0l304 1470v0h153h153v0l-304 -1470v0h-153h-153v0zM-28 -276q19 90 97.5 166t189.5 110h176q-113 -60 -181.5 -124.5t-80.5 -124.5q-9 -43 11.5 -73t58.5 -30q39 0 82 10t80 27l15 -102q-60 -23 -125 -37q-63 -14 -109 -14q-109 0 -170 55q-61 54 -44 137z" />
    <glyph glyph-name="iogonek" unicode="&#x12f;" horiz-adv-x="569" 
d="M147 0l225 1088v0h143h144v0l-225 -1088v0h-143h-144v0zM463 1482h290l-54 -262h-290zM-40 -276q19 90 97.5 166t189.5 110h176q-113 -60 -181.5 -124.5t-80.5 -124.5q-9 -43 11.5 -73t58.5 -30q39 0 82 10t80 27l15 -102q-60 -23 -125 -37q-63 -14 -109 -14
q-109 0 -170 55q-61 54 -44 137z" />
    <glyph glyph-name="Idotaccent" unicode="&#x130;" horiz-adv-x="569" 
d="M131 0l304 1470v0h153h153v0l-304 -1470v0h-153h-153v0zM542 1875h258l-49 -236h-258z" />
    <glyph glyph-name="Kcommaaccent" unicode="&#x136;" horiz-adv-x="1479" 
d="M178 0l304 1470v0h153h153v0l-125 -605v0l699 605v0h197h197v0l-725 -611v0l447 -859v0h-198h-199v0l-311 641v0l-186 -158v0l-100 -483v0h-153h-153v0zM599 -283l27 133h131h130l-42 -203q-33 -159 -116.5 -251t-224.5 -125v0l25 122v0q80 24 117 80q26 38 46 111v0
h-121z" />
    <glyph glyph-name="kcommaaccent" unicode="&#x137;" 
d="M141 0l304 1470v0h143h144v0l-166 -800v0l452 418v0h175h175v0l-474 -409v0l259 -679v0h-171h-172v0l-163 466v0l-150 -130v0l-69 -336v0h-143h-144v0zM436 -283l27 133h131h130l-42 -203q-33 -159 -116.5 -251t-224.5 -125v0l25 122v0q80 24 117 80q26 38 46 111v0h-121
z" />
    <glyph glyph-name="Lacute" unicode="&#x139;" horiz-adv-x="1251" 
d="M156 0v0l304 1470v0h153h153v0l-250 -1208v0h731v0l-29 -131l-29 -131v0h-1033zM538 1620l256 297h313l-360 -297h-209z" />
    <glyph glyph-name="lacute" unicode="&#x13a;" horiz-adv-x="569" 
d="M141 0l304 1470v0h143h144v0l-304 -1470v0h-143h-144v0zM513 1620l256 297h313l-360 -297h-209z" />
    <glyph glyph-name="Lcommaaccent" unicode="&#x13b;" horiz-adv-x="1251" 
d="M156 0v0l304 1470v0h153h153v0l-250 -1208v0h731v0l-29 -131l-29 -131v0h-1033zM489 -283l27 133h131h130l-42 -203q-33 -159 -116.5 -251t-224.5 -125v0l25 122v0q80 24 117 80q26 38 46 111v0h-121z" />
    <glyph glyph-name="lcommaaccent" unicode="&#x13c;" horiz-adv-x="569" 
d="M140 0l304 1470v0h143h144v0l-304 -1470v0h-143h-144v0zM100 -283l27 133h131h130l-42 -203q-33 -159 -116.5 -251t-224.5 -125v0l25 122v0q80 24 117 80q26 38 46 111v0h-121z" />
    <glyph glyph-name="Lcaron" unicode="&#x13d;" horiz-adv-x="1251" 
d="M156 0v0l304 1470v0h153h153v0l-250 -1208v0h731v0l-29 -131l-29 -131v0h-1033zM1019 1337l27 133h131h130l-42 -203q-33 -159 -116.5 -251t-224.5 -125v0l25 122v0q80 24 117 80q26 38 46 111v0h-121z" />
    <glyph glyph-name="lcaron" unicode="&#x13e;" horiz-adv-x="853" 
d="M211 0l304 1470v0h143h144v0l-304 -1470v0h-143h-144v0zM907 1337l27 133h131h130l-42 -203q-33 -159 -116.5 -251t-224.5 -125v0l25 122v0q80 24 117 80q26 38 46 111v0h-121z" />
    <glyph glyph-name="Lslash" unicode="&#x141;" horiz-adv-x="1251" 
d="M145 0v0l130 629l-215 -104l33 158l214 104l142 683v0h153h153v0l-107 -517l302 147l-32 -158l-303 -147l-110 -533v0h731v0l-29 -131l-29 -131v0h-1033z" />
    <glyph glyph-name="lslash" unicode="&#x142;" horiz-adv-x="569" 
d="M142 0l136 658l-201 -98l34 161l200 98l135 651v0h143h144v0l-103 -495l200 98l-34 -161l-199 -98l-168 -814v0h-143h-144v0z" />
    <glyph glyph-name="Nacute" unicode="&#x143;" horiz-adv-x="1479" 
d="M427 0v0h-143h-143v0l304 1470v0h162h162v0l378 -1041v0v0l216 1041v0h143h143v0l-304 -1470h-152h-153l-395 1057v0v0zM972 1620l256 297h313l-360 -297h-209z" />
    <glyph glyph-name="nacute" unicode="&#x144;" horiz-adv-x="1251" 
d="M133 0l225 1088v0h139h139v0l-32 -156v0v0l40 45q136 140 330 140q176 0 255 -99.5t42 -275.5l-153 -742v0h-143h-144v0l139 672q21 104 -12 154t-123 50q-110 0 -186 -66.5t-100 -184.5v0l-129 -625v0h-143h-144v0zM763 1238l256 297h313l-360 -297h-209z" />
    <glyph glyph-name="Ncommaaccent" unicode="&#x145;" horiz-adv-x="1479" 
d="M427 0v0h-143h-143v0l304 1470v0h162h162v0l378 -1041v0v0l216 1041v0h143h143v0l-304 -1470h-152h-153l-395 1057v0v0zM560 -283l27 133h131h130l-42 -203q-33 -159 -116.5 -251t-224.5 -125v0l25 122v0q80 24 117 80q26 38 46 111v0h-121z" />
    <glyph glyph-name="ncommaaccent" unicode="&#x146;" horiz-adv-x="1251" 
d="M133 0l225 1088v0h139h139v0l-32 -156v0v0l40 45q136 140 330 140q176 0 255 -99.5t42 -275.5l-153 -742v0h-143h-144v0l139 672q21 104 -12 154t-123 50q-110 0 -186 -66.5t-100 -184.5v0l-129 -625v0h-143h-144v0zM442 -283l27 133h131h130l-42 -203
q-33 -159 -116.5 -251t-224.5 -125v0l25 122v0q80 24 117 80q26 38 46 111v0h-121z" />
    <glyph glyph-name="Ncaron" unicode="&#x147;" horiz-adv-x="1479" 
d="M427 0v0h-143h-143v0l304 1470v0h162h162v0l378 -1041v0v0l216 1041v0h143h143v0l-304 -1470h-152h-153l-395 1057v0v0zM944 1621l-167 299h229l94 -167v0l165 167h234l-301 -299h-127h-127z" />
    <glyph glyph-name="ncaron" unicode="&#x148;" horiz-adv-x="1251" 
d="M133 0l225 1088v0h139h139v0l-32 -156v0v0l40 45q136 140 330 140q176 0 255 -99.5t42 -275.5l-153 -742v0h-143h-144v0l139 672q21 104 -12 154t-123 50q-110 0 -186 -66.5t-100 -184.5v0l-129 -625v0h-143h-144v0zM754 1239l-167 299h229l94 -167v0l165 167h234
l-301 -299h-127h-127z" />
    <glyph glyph-name="Omacron" unicode="&#x14c;" horiz-adv-x="1593" 
d="M793 -37q-269 0 -421.5 143t-152.5 397q0 50 6.5 110t18.5 117q74 357 308 567t560 210q269 0 421 -144.5t152 -400.5q-1 -50 -7.5 -111.5t-18.5 -120.5q-73 -353 -308 -560q-233 -207 -558 -207v0zM845 220q182 0 317.5 138t184.5 373q9 44 14 91t6 86q0 161 -82 251.5
t-227 90.5q-182 0 -317.5 -140t-184.5 -379q-9 -45 -14.5 -91t-5.5 -82q0 -159 82 -248.5t227 -89.5v0zM854 1811h640l-33 -159h-640z" />
    <glyph glyph-name="omacron" unicode="&#x14d;" horiz-adv-x="1251" 
d="M625 -29q-211 0 -333.5 111.5t-123.5 303.5q0 33 4.5 74.5t12.5 79.5q55 265 237.5 421t439.5 156q211 0 333.5 -113t122.5 -307q0 -34 -5 -76t-13 -81q-54 -262 -236.5 -415.5t-438.5 -153.5v0zM674 212q131 0 214 86t119 259q6 28 9 56t3 51q0 101 -54 156.5t-153 55.5
q-130 0 -213 -87.5t-120 -263.5q-5 -27 -8.5 -54t-2.5 -50q0 -100 53.5 -154.5t152.5 -54.5v0zM606 1429h640l-33 -159h-640z" />
    <glyph glyph-name="glyph282" horiz-adv-x="0" 
d="M-404 0l256 297h313l-360 -297h-209zM63 0l256 297h313l-360 -297h-209z" />
    <glyph glyph-name="Ohungarumlaut" unicode="&#x150;" horiz-adv-x="1593" 
d="M793 -37q-269 0 -421.5 143t-152.5 397q0 50 6.5 110t18.5 117q74 357 308 567t560 210q269 0 421 -144.5t152 -400.5q-1 -50 -7.5 -111.5t-18.5 -120.5q-73 -353 -308 -560q-233 -207 -558 -207v0zM845 220q182 0 317.5 138t184.5 373q9 44 14 91t6 86q0 161 -82 251.5
t-227 90.5q-182 0 -317.5 -140t-184.5 -379q-9 -45 -14.5 -91t-5.5 -82q0 -159 82 -248.5t227 -89.5v0zM731 1620l256 297h313l-360 -297h-209zM1198 1620l256 297h313l-360 -297h-209z" />
    <glyph glyph-name="glyph284" horiz-adv-x="0" 
d="M-381 0l256 297h313l-360 -297h-209zM86 0l256 297h313l-360 -297h-209z" />
    <glyph glyph-name="ohungarumlaut" unicode="&#x151;" horiz-adv-x="1251" 
d="M625 -29q-211 0 -333.5 111.5t-123.5 303.5q0 33 4.5 74.5t12.5 79.5q55 265 237.5 421t439.5 156q211 0 333.5 -113t122.5 -307q0 -34 -5 -76t-13 -81q-54 -262 -236.5 -415.5t-438.5 -153.5v0zM674 212q131 0 214 86t119 259q6 28 9 56t3 51q0 101 -54 156.5t-153 55.5
q-130 0 -213 -87.5t-120 -263.5q-5 -27 -8.5 -54t-2.5 -50q0 -100 53.5 -154.5t152.5 -54.5v0zM506 1238l256 297h313l-360 -297h-209zM973 1238l256 297h313l-360 -297h-209z" />
    <glyph glyph-name="OE" unicode="&#x152;" horiz-adv-x="2048" 
d="M1005 1506q185 0 275 -102l4 -4v0l15 70h299v0h662v0l-25 -131l-25 -131v0h-666v0l-64 -305v0h633l-27 -131l-27 -131v0h-633v0l-78 -379v0h676v0l-29 -131l-29 -131v0h-672v0h-299l17 83v0q-142 -118 -347 -119q-217 0 -339.5 134t-122.5 372q0 54 8 123t22 137
q75 365 280 571q204 205 492 205zM993 1260q-170 0 -287.5 -142.5t-173.5 -416.5q-10 -46 -15.5 -93t-5.5 -83q0 -147 70.5 -229.5t195.5 -82.5q132 1 237 90q22 18 42 54q20 35 27 68l128 621q7 35 3 70.5t-17 51.5l-10 13q-66 79 -194 79z" />
    <glyph glyph-name="oe" unicode="&#x153;" horiz-adv-x="1933" 
d="M831 1117q211 0 320 -97q27 -23 47 -54v0q175 151 388 151q205 0 310 -100t105 -294q0 -48 -6 -103t-19 -114l-7 -35v0h-746v0l-2 -14q-4 -30 -4 -57q1 -99 51 -148.5t151 -49.5q73 0 133 31.5t85 82.5v0h290v0q-76 -159 -226.5 -252t-330.5 -93q-213 0 -327 101
q-23 21 -42 46v0q-171 -148 -407 -147q-197 0 -311.5 110t-114.5 298q0 33 5 76.5t13 84.5q55 265 230 421q173 156 415 156zM811 876q-129 0 -211.5 -87.5t-119.5 -263.5q-5 -27 -8.5 -54.5t-3.5 -50.5q1 -99 54 -153.5t151 -54.5q130 0 212.5 86t118.5 259q6 29 9 57t3 51
q0 101 -53 156q-54 55 -152 55zM1715 658v0l1 38q0 94 -44.5 139.5t-135.5 45.5q-115 0 -191 -89q-44 -52 -75 -134v0h445z" />
    <glyph glyph-name="Racute" unicode="&#x154;" horiz-adv-x="1479" 
d="M156 0l304 1470v0h153v0h612q174 0 272 -83t98 -230q0 -25 -3.5 -55.5t-9.5 -58.5q-38 -186 -189 -287q-47 -31 -104 -54v0q22 -9 39 -21q110 -75 78 -252l-42 -239q-13 -72 -6 -102t40 -48l-8 -39h-339q-9 27 -3.5 102.5t21.5 158.5l26 134q18 101 -28.5 144t-176.5 43
h-308v0l-120 -583v0h-153h-153v0zM633 827v0h379q113 0 176 45t83 139q4 20 6 36.5t2 32.5q0 74 -50 107.5t-160 33.5h-355v0zM930 1620l256 297h313l-360 -297h-209z" />
    <glyph glyph-name="racute" unicode="&#x155;" horiz-adv-x="797" 
d="M131 0l225 1088v0h136h137v0l-46 -221v0v0q26 41 57 80q135 170 290 170l69 -1l-51 -244q-36 4 -86 4q-129 0 -212.5 -78.5t-114.5 -228.5v0l-117 -569v0h-143h-144v0zM587 1238l256 297h313l-360 -297h-209z" />
    <glyph glyph-name="Rcommaaccent" unicode="&#x156;" horiz-adv-x="1479" 
d="M156 0l304 1470v0h153v0h612q174 0 272 -83t98 -230q0 -25 -3.5 -55.5t-9.5 -58.5q-38 -186 -189 -287q-47 -31 -104 -54v0q22 -9 39 -21q110 -75 78 -252l-42 -239q-13 -72 -6 -102t40 -48l-8 -39h-339q-9 27 -3.5 102.5t21.5 158.5l26 134q18 101 -28.5 144t-176.5 43
h-308v0l-120 -583v0h-153h-153v0zM633 827v0h379q113 0 176 45t83 139q4 20 6 36.5t2 32.5q0 74 -50 107.5t-160 33.5h-355v0zM557 -283l27 133h131h130l-42 -203q-33 -159 -116.5 -251t-224.5 -125v0l25 122v0q80 24 117 80q26 38 46 111v0h-121z" />
    <glyph glyph-name="rcommaaccent" unicode="&#x157;" horiz-adv-x="797" 
d="M159 0l225 1088v0h136h137v0l-46 -221v0v0q26 41 57 80q135 170 290 170l69 -1l-51 -244q-36 4 -86 4q-129 0 -212.5 -78.5t-114.5 -228.5v0l-117 -569v0h-143h-144v0zM119 -283l27 133h131h130l-42 -203q-33 -159 -116.5 -251t-224.5 -125v0l25 122v0q80 24 117 80
q26 38 46 111v0h-121z" />
    <glyph glyph-name="Rcaron" unicode="&#x158;" horiz-adv-x="1479" 
d="M156 0l304 1470v0h153v0h612q174 0 272 -83t98 -230q0 -25 -3.5 -55.5t-9.5 -58.5q-38 -186 -189 -287q-47 -31 -104 -54v0q22 -9 39 -21q110 -75 78 -252l-42 -239q-13 -72 -6 -102t40 -48l-8 -39h-339q-9 27 -3.5 102.5t21.5 158.5l26 134q18 101 -28.5 144t-176.5 43
h-308v0l-120 -583v0h-153h-153v0zM633 827v0h379q113 0 176 45t83 139q4 20 6 36.5t2 32.5q0 74 -50 107.5t-160 33.5h-355v0zM902 1621l-167 299h229l94 -167v0l165 167h234l-301 -299h-127h-127z" />
    <glyph glyph-name="rcaron" unicode="&#x159;" horiz-adv-x="797" 
d="M131 0l225 1088v0h136h137v0l-46 -221v0v0q26 41 57 80q135 170 290 170l69 -1l-51 -244q-36 4 -86 4q-129 0 -212.5 -78.5t-114.5 -228.5v0l-117 -569v0h-143h-144v0zM578 1239l-167 299h229l94 -167v0l165 167h234l-301 -299h-127h-127z" />
    <glyph glyph-name="Sacute" unicode="&#x15a;" horiz-adv-x="1366" 
d="M1169 1029v0q0 126 -59 177.5t-203 51.5q-116 0 -191.5 -51.5t-94.5 -143.5q-15 -72 44 -108t264 -80q308 -67 399 -159q61 -62 61 -176q0 -55 -14 -121q-44 -214 -230 -335q-184 -121 -468 -121t-411 123q-101 98 -100 275q-1 45 6 95v0h294v0q-16 -124 48 -184t213 -60
q148 0 241.5 50t111.5 138q17 81 -34 119q-51 37 -231 76q-330 72 -429 163q-69 63 -69 180q0 48 12 106q45 218 221.5 340.5t444.5 122.5q258 0 377 -122q99 -100 100 -277l-5 -79v0h-298zM985 1620l256 297h313l-360 -297h-209z" />
    <glyph glyph-name="sacute" unicode="&#x15b;" 
d="M924 762v0q0 76 -38 107.5t-131 31.5q-85 0 -137.5 -25t-61.5 -69q-8 -38 34 -65q43 -26 159 -53q256 -60 338 -134q61 -55 61 -146q0 -33 -8 -71q-35 -169 -185.5 -268t-373.5 -99q-248 0 -360 94q-91 77 -92 217l5 66v0h293v0q-10 -82 43 -121.5t175 -39.5
q80 0 131.5 29.5t62.5 81.5q8 40 -37 67t-168 56q-242 56 -319 128q-56 53 -56 140q0 34 8 72q34 164 172.5 260t340.5 96q234 0 341 -90q85 -71 85 -197q0 -31 -6 -68v0h-276zM687 1238l256 297h313l-360 -297h-209z" />
    <glyph glyph-name="Scedilla" unicode="&#x15e;" horiz-adv-x="1366" 
d="M1169 1029v0q0 126 -59 177.5t-203 51.5q-116 0 -191.5 -51.5t-94.5 -143.5q-15 -72 44 -108t264 -80q308 -67 399 -159q61 -62 61 -176q0 -55 -14 -121q-44 -214 -230 -335q-184 -121 -468 -121t-411 123q-101 98 -100 275q-1 45 6 95v0h294v0q-16 -124 48 -184t213 -60
q148 0 241.5 50t111.5 138q17 81 -34 119q-51 37 -231 76q-330 72 -429 163q-69 63 -69 180q0 48 12 106q45 218 221.5 340.5t444.5 122.5q258 0 377 -122q99 -100 100 -277l-5 -79v0h-298zM689 0l-101 -111v0l60 7q82 0 123 -44t26 -116q-18 -87 -102.5 -145t-194.5 -58
q-60 0 -117 14t-108 40l65 96q46 -15 86.5 -24t64.5 -9q40 0 73 23t40 57q6 30 -13 52t-51 22q-12 0 -39 -5t-46 -11l-35 41l151 171h118z" />
    <glyph glyph-name="scedilla" unicode="&#x15f;" 
d="M924 762v0q0 76 -38 107.5t-131 31.5q-85 0 -137.5 -25t-61.5 -69q-8 -38 34 -65q43 -26 159 -53q256 -60 338 -134q61 -55 61 -146q0 -33 -8 -71q-35 -169 -185.5 -268t-373.5 -99q-248 0 -360 94q-91 77 -92 217l5 66v0h293v0q-10 -82 43 -121.5t175 -39.5
q80 0 131.5 29.5t62.5 81.5q8 40 -37 67t-168 56q-242 56 -319 128q-56 53 -56 140q0 34 8 72q34 164 172.5 260t340.5 96q234 0 341 -90q85 -71 85 -197q0 -31 -6 -68v0h-276zM626 0l-101 -111v0l60 7q82 0 123 -44t26 -116q-18 -87 -102.5 -145t-194.5 -58q-60 0 -117 14
t-108 40l65 96q47 -15 87.5 -24t63.5 -9q40 0 73 23t40 57q6 30 -13 52t-51 22q-12 0 -39 -5t-46 -11l-35 41l151 171h118z" />
    <glyph glyph-name="Scaron" unicode="&#x160;" horiz-adv-x="1366" 
d="M1169 1029v0q0 126 -59 177.5t-203 51.5q-116 0 -191.5 -51.5t-94.5 -143.5q-15 -72 44 -108t264 -80q308 -67 399 -159q61 -62 61 -176q0 -55 -14 -121q-44 -214 -230 -335q-184 -121 -468 -121t-411 123q-101 98 -100 275q-1 45 6 95v0h294v0q-16 -124 48 -184t213 -60
q148 0 241.5 50t111.5 138q17 81 -34 119q-51 37 -231 76q-330 72 -429 163q-69 63 -69 180q0 48 12 106q45 218 221.5 340.5t444.5 122.5q258 0 377 -122q99 -100 100 -277l-5 -79v0h-298zM957 1621l-167 299h229l94 -167v0l165 167h234l-301 -299h-127h-127z" />
    <glyph glyph-name="scaron" unicode="&#x161;" 
d="M924 762v0q0 76 -38 107.5t-131 31.5q-85 0 -137.5 -25t-61.5 -69q-8 -38 34 -65q43 -26 159 -53q256 -60 338 -134q61 -55 61 -146q0 -33 -8 -71q-35 -169 -185.5 -268t-373.5 -99q-248 0 -360 94q-91 77 -92 217l5 66v0h293v0q-10 -82 43 -121.5t175 -39.5
q80 0 131.5 29.5t62.5 81.5q8 40 -37 67t-168 56q-242 56 -319 128q-56 53 -56 140q0 34 8 72q34 164 172.5 260t340.5 96q234 0 341 -90q85 -71 85 -197q0 -31 -6 -68v0h-276zM678 1239l-167 299h229l94 -167v0l165 167h234l-301 -299h-127h-127z" />
    <glyph glyph-name="glyph300" horiz-adv-x="0" 
d="M116 397l31 149h142h142l-41 -197q-31 -151 -120.5 -241t-241.5 -125v0l27 133v0q86 27 124 72q21 25 34 60v0h-128z" />
    <glyph glyph-name="Tcommaaccent" unicode="&#x162;" horiz-adv-x="1251" 
d="M487 0l250 1208v0h-450v0l29 131l29 131v0h1199v0l-25 -131l-25 -131v0h-451v0l-250 -1208v0h-153h-153v0zM453 -269l31 149h142h142l-41 -197q-31 -151 -120.5 -241t-241.5 -125v0l27 133v0q86 27 124 72q21 25 34 60v0h-128z" />
    <glyph glyph-name="glyph302" horiz-adv-x="0" 
d="M101 225l27 132h131h130l-36 -178q-29 -137 -110 -218.5t-222 -113.5v0l25 122v0q80 24 114 66q20 23 31 57v0h-117z" />
    <glyph glyph-name="tcommaaccent" unicode="&#x163;" horiz-adv-x="682" 
d="M591 -8q-70 -5 -177 -5q-156 0 -209.5 52.5t-27.5 180.5l137 663v0h-149l43 205h149v0l60 293h287l-60 -293v0h173l-43 -205h-173v0l-127 -614q-7 -34 15 -49.5t77 -15.5l69 4zM216 -263l27 132h131h130l-36 -178q-29 -137 -110 -218.5t-222 -113.5v0l25 122v0
q80 24 114 66q20 23 31 57v0h-117z" />
    <glyph glyph-name="Tcaron" unicode="&#x164;" horiz-adv-x="1251" 
d="M487 0l250 1208v0h-450v0l29 131l29 131v0h1199v0l-25 -131l-25 -131v0h-451v0l-250 -1208v0h-153h-153v0zM841 1621l-167 299h229l94 -167v0l165 167h234l-301 -299h-127h-127z" />
    <glyph glyph-name="tcaron" unicode="&#x165;" horiz-adv-x="966" 
d="M680 -8q-70 -5 -177 -5q-156 0 -209.5 52.5t-27.5 180.5l137 663v0h-149l43 205h149v0l60 293h287l-60 -293v0h173l-43 -205h-173v0l-127 -614q-7 -34 15 -49.5t77 -15.5l69 4zM1017 1341l27 133h131h130l-42 -203q-33 -159 -116.5 -251t-224.5 -125v0l25 122v0
q80 24 117 80q26 38 46 111v0h-121z" />
    <glyph glyph-name="Umacron" unicode="&#x16a;" horiz-adv-x="1479" 
d="M1434 484q-52 -250 -237 -386q-183 -135 -472 -135q-272 0 -399 138q-88 98 -88 249q0 62 15 134l204 986v0h156h156v0l-202 -976q-9 -41 -8 -75q-1 -75 37 -123q55 -71 179 -71q143 0 234.5 70t118.5 199l202 976v0h154h154v0zM798 1811h640l-33 -159h-640z" />
    <glyph glyph-name="umacron" unicode="&#x16b;" horiz-adv-x="1251" 
d="M648 1088l-139 -672q-22 -104 11 -154t123 -50q110 0 186 66.5t100 184.5v0l130 625v0h143h144v0l-225 -1088v0h-139h-139v0l32 159v0v0q-17 -24 -41 -48q-135 -140 -329 -140q-176 0 -254 110q-50 71 -50 180q0 56 14 123l146 704v0h143h144v0zM603 1429h640l-33 -159
h-640z" />
    <glyph glyph-name="Uring" unicode="&#x16e;" horiz-adv-x="1479" 
d="M1434 484q-52 -250 -237 -386q-183 -135 -472 -135q-272 0 -399 138q-88 98 -88 249q0 62 15 134l204 986v0h156h156v0l-202 -976q-9 -41 -8 -75q-1 -75 37 -123q55 -71 179 -71q143 0 234.5 70t118.5 199l202 976v0h154h154v0zM1065 1548q-93 0 -145 62t-33 151
q18 89 95 151t170 62t144 -62t33 -151q-19 -89 -95 -151t-169 -62v0zM1087 1662q45 0 82 28.5t46 70.5q8 42 -17 70.5t-70 28.5t-82 -28.5t-45 -70.5q-9 -42 16 -70.5t70 -28.5v0z" />
    <glyph glyph-name="uring" unicode="&#x16f;" horiz-adv-x="1251" 
d="M648 1088l-139 -672q-22 -104 11 -154t123 -50q110 0 186 66.5t100 184.5v0l130 625v0h143h144v0l-225 -1088v0h-139h-139v0l32 159v0v0q-17 -24 -41 -48q-135 -140 -329 -140q-176 0 -254 110q-50 71 -50 180q0 56 14 123l146 704v0h143h144v0zM883 1166q-93 0 -145 62
t-33 151q18 89 95 151t170 62t144 -62t33 -151q-19 -89 -95 -151t-169 -62v0zM905 1280q45 0 82 28.5t46 70.5q8 42 -17 70.5t-70 28.5t-82 -28.5t-45 -70.5q-9 -42 16 -70.5t70 -28.5v0z" />
    <glyph glyph-name="Uhungarumlaut" unicode="&#x170;" horiz-adv-x="1479" 
d="M1434 484q-52 -250 -237 -386q-183 -135 -472 -135q-272 0 -399 138q-88 98 -88 249q0 62 15 134l204 986v0h156h156v0l-202 -976q-9 -41 -8 -75q-1 -75 37 -123q55 -71 179 -71q143 0 234.5 70t118.5 199l202 976v0h154h154v0zM675 1620l256 297h313l-360 -297h-209z
M1142 1620l256 297h313l-360 -297h-209z" />
    <glyph glyph-name="uhungarumlaut" unicode="&#x171;" horiz-adv-x="1251" 
d="M648 1088l-139 -672q-22 -104 11 -154t123 -50q110 0 186 66.5t100 184.5v0l130 625v0h143h144v0l-225 -1088v0h-139h-139v0l32 159v0v0q-17 -24 -41 -48q-135 -140 -329 -140q-176 0 -254 110q-50 71 -50 180q0 56 14 123l146 704v0h143h144v0zM503 1238l256 297h313
l-360 -297h-209zM970 1238l256 297h313l-360 -297h-209z" />
    <glyph glyph-name="Uogonek" unicode="&#x172;" horiz-adv-x="1479" 
d="M1434 484q-52 -250 -237 -386q-183 -135 -472 -135q-272 0 -399 138q-88 98 -88 249q0 62 15 134l204 986v0h156h156v0l-202 -976q-9 -41 -8 -75q-1 -75 37 -123q55 -71 179 -71q143 0 234.5 70t118.5 199l202 976v0h154h154v0zM487 -276q19 90 97.5 166t189.5 110h176
q-113 -60 -181.5 -124.5t-80.5 -124.5q-9 -43 11.5 -73t58.5 -30q39 0 82 10t80 27l15 -102q-60 -23 -125 -37q-63 -14 -109 -14q-109 0 -170 55q-61 54 -44 137z" />
    <glyph glyph-name="uogonek" unicode="&#x173;" horiz-adv-x="1251" 
d="M648 1088l-139 -672q-22 -104 11 -154t123 -50q110 0 186 66.5t100 184.5v0l130 625v0h143h144v0l-225 -1088v0h-139h-139v0l32 159v0v0q-17 -24 -41 -48q-135 -140 -329 -140q-176 0 -254 110q-50 71 -50 180q0 56 14 123l146 704v0h143h144v0zM561 -276q19 90 97.5 166
t189.5 110h176q-113 -60 -181.5 -124.5t-80.5 -124.5q-9 -43 11.5 -73t58.5 -30q39 0 82 10t80 27l15 -102q-60 -23 -125 -37q-63 -14 -109 -14q-109 0 -170 55q-61 54 -44 137z" />
    <glyph glyph-name="Ydieresis" unicode="&#x178;" horiz-adv-x="1366" 
d="M652 556v0l-308 914v0h181h181v0l167 -634v0l424 634v0h173h174v0l-686 -913v0l-115 -557h-153h-153zM747 1874h258l-49 -235h-258zM1149 1874h258l-49 -235h-258z" />
    <glyph glyph-name="Zacute" unicode="&#x179;" horiz-adv-x="1251" 
d="M100 241l964 967v0h-737v0l29 131l29 131v0h1121l-25 -120l-25 -121l-965 -967v0h762v0l-29 -131l-29 -131v0h-1144l24 120zM870 1620l256 297h313l-360 -297h-209z" />
    <glyph glyph-name="zacute" unicode="&#x17a;" horiz-adv-x="1024" 
d="M93 234l686 620l8 7v0h-518v0l25 113l26 114v0h877l-24 -117l-25 -117l-686 -619v0h564v0l-22 -117l-22 -118v0h-941l26 117zM671 1238l256 297h313l-360 -297h-209z" />
    <glyph glyph-name="Zdotaccent" unicode="&#x17b;" horiz-adv-x="1251" 
d="M100 241l964 967v0h-737v0l29 131l29 131v0h1121l-25 -120l-25 -121l-965 -967v0h762v0l-29 -131l-29 -131v0h-1144l24 120zM899 1875h258l-49 -236h-258z" />
    <glyph glyph-name="zdotaccent" unicode="&#x17c;" horiz-adv-x="1024" 
d="M93 234l686 620l8 7v0h-518v0l25 113l26 114v0h877l-24 -117l-25 -117l-686 -619v0h564v0l-22 -117l-22 -118v0h-941l26 117zM712 1493h258l-49 -236h-258z" />
    <glyph glyph-name="Zcaron" unicode="&#x17d;" horiz-adv-x="1251" 
d="M100 241l964 967v0h-737v0l29 131l29 131v0h1121l-25 -120l-25 -121l-965 -967v0h762v0l-29 -131l-29 -131v0h-1144l24 120zM842 1621l-167 299h229l94 -167v0l165 167h234l-301 -299h-127h-127z" />
    <glyph glyph-name="zcaron" unicode="&#x17e;" horiz-adv-x="1024" 
d="M93 234l686 620l8 7v0h-518v0l25 113l26 114v0h877l-24 -117l-25 -117l-686 -619v0h564v0l-22 -117l-22 -118v0h-941l26 117zM662 1239l-167 299h229l94 -167v0l165 167h234l-301 -299h-127h-127z" />
    <glyph glyph-name="florin" unicode="&#x192;" 
d="M861 774v0l-315 -836q-69 -183 -181.5 -271.5t-275.5 -88.5q-44 0 -86 9.5t-104 34.5v0l92 218v0q29 -19 53.5 -26.5t56.5 -7.5q64 0 100.5 38t77.5 148l295 782v0h-245l41 205h281v0l70 183q67 178 178.5 264t274.5 86q46 0 94.5 -11t94.5 -33v0l-92 -217v0
q-27 18 -52 25.5t-61 7.5q-61 0 -96.5 -36t-74.5 -140l-49 -129v0h245l-41 -205h-281z" />
    <glyph glyph-name="circumflex" unicode="&#x2c6;" horiz-adv-x="682" 
d="M797 1537l167 -299h-229l-94 167v0l-165 -167h-234l301 299h127h127z" />
    <glyph glyph-name="caron" unicode="&#x2c7;" horiz-adv-x="682" 
d="M472 1239l-167 299h229l95 -167v0l164 167h234l-301 -299h-127h-127z" />
    <glyph glyph-name="uni02C9" unicode="&#x2c9;" horiz-adv-x="682" 
d="M306 1410h640l-32 -159h-640z" />
    <glyph glyph-name="breve" unicode="&#x2d8;" horiz-adv-x="682" 
d="M576 1238q-144 0 -209 74t-54 223h135q-1 -76 41 -110t137 -34q109 0 163.5 32.5t78.5 111.5h135q-44 -149 -152 -223q-106 -74 -275 -74z" />
    <glyph glyph-name="dotaccent" unicode="&#x2d9;" horiz-adv-x="682" 
d="M503 1493h258l-49 -236h-258z" />
    <glyph glyph-name="ring" unicode="&#x2da;" horiz-adv-x="682" 
d="M587 1166q-93 0 -144 62t-33 151q19 89 95.5 151t169.5 62t144.5 -62t32.5 -151q-18 -89 -95 -151t-170 -62v0zM611 1280q45 0 81.5 28.5t45.5 70.5t-16 70.5t-70 28.5t-82 -28.5t-46 -70.5t16.5 -70.5t70.5 -28.5v0z" />
    <glyph glyph-name="ogonek" unicode="&#x2db;" horiz-adv-x="682" 
d="M107 -276q19 90 97.5 166t189.5 110h176q-113 -60 -181.5 -124.5t-80.5 -124.5q-9 -43 11.5 -73t58.5 -30q39 0 82 10t80 27l15 -102q-60 -23 -125 -37q-63 -14 -109 -14q-109 0 -170 55q-61 54 -44 137z" />
    <glyph glyph-name="tilde" unicode="&#x2dc;" horiz-adv-x="682" 
d="M231 1253q44 114 124.5 181t174.5 67q26 0 70 -12.5t82 -30.5q30 -13 61.5 -22.5t48.5 -9.5q34 0 67 24.5t47 60.5h130q-40 -117 -112.5 -182.5t-160.5 -65.5q-31 0 -83 12.5t-95 30.5q-33 13 -64.5 22.5t-44.5 9.5q-33 0 -66.5 -24.5t-48.5 -60.5h-130z" />
    <glyph glyph-name="hungarumlaut" unicode="&#x2dd;" horiz-adv-x="682" 
d="M202 1238l257 297h313l-361 -297h-209zM669 1238l257 297h313l-361 -297h-209z" />
    <glyph glyph-name="pi" unicode="&#x3c0;" horiz-adv-x="1246" 
d="M112 692q91 160 171.5 213.5t229.5 53.5l338 1q90 0 191 2.5t146 6.5l-30 -164h-301q-32 -171 -29 -326t43 -334q22 -99 7 -134.5t-78 -35.5q-64 0 -97.5 59t-33.5 172q0 95 23 233t78 366h-148l-116 -652q-18 -105 -45 -141.5t-86 -36.5q-66 0 -76.5 45t28.5 165
l211 620h-94q-75 0 -130.5 -31.5t-140.5 -121.5z" />
    <glyph glyph-name="endash" unicode="&#x2013;" 
d="M145 679h1138l-47 -210h-1138z" />
    <glyph glyph-name="emdash" unicode="&#x2014;" horiz-adv-x="2048" 
d="M141 679h2048l-43 -210h-2048z" />
    <glyph glyph-name="quoteleft" unicode="&#x2018;" horiz-adv-x="569" 
d="M654 1058l-27 -130h-145h-144l40 196q32 151 119.5 240t239.5 124v0l-22 -106v0q-101 -31 -145 -87q-30 -37 -50 -107v0h16h145z" />
    <glyph glyph-name="quoteright" unicode="&#x2019;" horiz-adv-x="569" 
d="M425 1340l27 130h145h144l-41 -196q-31 -151 -119 -240t-239 -124v0l22 106v0q100 31 145 87q30 37 50 107v0h-16h-145z" />
    <glyph glyph-name="quotesinglbase" unicode="&#x201a;" horiz-adv-x="569" 
d="M166 130l27 130h145h144l-40 -196q-31 -151 -118.5 -240t-239.5 -124v0l22 106v0q101 31 145 87q30 37 50 107v0h-16h-145z" />
    <glyph glyph-name="quotedblleft" unicode="&#x201c;" horiz-adv-x="1024" 
d="M644 1058l-27 -130h-145h-144l40 196q32 151 119.5 240t239.5 124v0l-22 -106v0q-101 -31 -145 -87q-30 -37 -50 -107v0h16h145zM1117 1058l-27 -130h-145h-144l40 196q32 151 119.5 240t239.5 124v0l-22 -106v0q-101 -31 -145 -87q-30 -37 -50 -107v0h16h145z" />
    <glyph glyph-name="quotedblright" unicode="&#x201d;" horiz-adv-x="1024" 
d="M415 1340l27 130h145h144l-41 -196q-31 -151 -119 -240t-239 -124v0l22 106v0q100 31 145 87q30 37 50 107v0h-16h-145zM888 1340l27 130h145h144l-41 -196q-31 -151 -119 -240t-239 -124v0l22 106v0q100 31 145 87q30 37 50 107v0h-16h-145z" />
    <glyph glyph-name="quotedblbase" unicode="&#x201e;" horiz-adv-x="1024" 
d="M156 130l27 130h145h144l-40 -196q-31 -151 -118.5 -240t-239.5 -124v0l22 106v0q101 31 145 87q30 37 50 107v0h-16h-145zM629 130l27 130h145h144l-40 -196q-31 -151 -118.5 -240t-239.5 -124v0l22 106v0q101 31 145 87q30 37 50 107v0h-16h-145z" />
    <glyph glyph-name="dagger" unicode="&#x2020;" 
d="M290 1028h361v0l92 442h275l-92 -442v0h362l-48 -234h-362v0l-237 -1149h-275l237 1149v0h-361z" />
    <glyph glyph-name="daggerdbl" unicode="&#x2021;" 
d="M292 1048h363v0l87 422h272l-87 -422v0h363l-49 -234h-363v0l-101 -487v0h363l-48 -234h-363v0l-92 -448h-272l92 448v0h-363l48 234h363v0l101 487v0h-363z" />
    <glyph glyph-name="bullet" unicode="&#x2022;" horiz-adv-x="717" 
d="M577 1074q142 0 219 -98t48 -240t-148 -240q-117 -97 -259 -97t-219 97.5t-48 239.5t147 240t260 98z" />
    <glyph glyph-name="ellipsis" unicode="&#x2026;" horiz-adv-x="2048" 
d="M249 298h308l-61 -298h-308zM937 298h308l-61 -298h-308zM1626 298h308l-61 -298h-308z" />
    <glyph glyph-name="perthousand" unicode="&#x2030;" horiz-adv-x="2048" 
d="M493 798q-116 0 -192.5 72.5t-76.5 182.5q0 15 2 35t5 36q29 139 144.5 234.5t253.5 95.5q116 0 192.5 -73t76.5 -184q0 -15 -2 -35.5t-6 -37.5q-28 -137 -144 -232q-114 -94 -253 -94v0zM588 1256q-54 0 -96 -36.5t-54 -94.5q-3 -19 -3 -33q0 -43 27.5 -69.5t71.5 -26.5
q54 0 96 36t53 93q4 19 4 33q0 44 -27 71t-72 27v0zM156 -40l1124 1494h154l-1124 -1494h-154zM963 -11q-116 0 -193 72.5t-77 182.5q0 15 2 35t6 36q29 139 144 234.5t253 95.5q116 0 193 -73t77 -184q0 -15 -2.5 -35.5t-5.5 -37.5q-29 -137 -143.5 -231.5t-253.5 -94.5v0z
M1057 447q-54 0 -95.5 -36.5t-53.5 -94.5q-4 -19 -4 -33q0 -43 27.5 -69.5t71.5 -26.5q54 0 96 36t54 93q4 19 4 33q0 44 -27.5 71t-72.5 27v0zM1724 -11q-116 0 -193 72.5t-77 182.5q0 15 2 35t6 36q29 139 144 234.5t253 95.5q116 0 193 -73t77 -184q0 -15 -2.5 -35.5
t-5.5 -37.5q-29 -137 -143.5 -231.5t-253.5 -94.5v0zM1818 447q-54 0 -95.5 -36.5t-53.5 -94.5q-4 -19 -4 -33q0 -43 27.5 -69.5t71.5 -26.5q54 0 96 36t54 93q4 19 4 33q0 44 -27.5 71t-72.5 27v0z" />
    <glyph glyph-name="guilsinglleft" unicode="&#x2039;" horiz-adv-x="682" 
d="M673 751l-245 -178v0l171 -179l-49 -237l-284 296l25 120l25 120l406 295z" />
    <glyph glyph-name="guilsinglright" unicode="&#x203a;" horiz-adv-x="682" 
d="M252 394l245 178v0l-171 179l49 237l284 -296l-25 -120l-25 -120l-406 -295z" />
    <glyph glyph-name="fraction" unicode="&#x2044;" horiz-adv-x="342" 
d="M998 1455l-1195 -1499h-158l1195 1499h158z" />
    <glyph glyph-name="uni2074" unicode="&#x2074;" horiz-adv-x="682" 
d="M544 768h-366l19 80l20 81l491 500h96h96l-122 -505v0h107l-37 -156h-107v0l-45 -187h-197l45 187v0zM581 924v0l52 217v0v0l-203 -212l-6 -5v0h157z" />
    <glyph glyph-name="Euro" unicode="&#x20ac;" 
d="M1201 429v0q-61 -229 -201 -348q-137 -119 -343 -119q-186 0 -285 114.5t-99 330.5v28h-163l88 214h99l10 54l12 54h-143l89 214h116q67 183 165 296q162 187 409 187q198 0 293 -119q82 -104 82 -288l-2 -61v0h-288v0q13 115 -17.5 168.5t-109.5 53.5q-106 0 -183 -124
q-28 -47 -56 -113h299l-89 -214h-274l-10 -53l-11 -55h250l-88 -214h-189l1 -23q-1 -104 32.5 -154t102.5 -50q67 0 126.5 61t88.5 160v0h288z" />
    <glyph glyph-name="glyph350" horiz-adv-x="0" 
d="M15 632l137 660v0h-239v0l19 89l21 89v0h702v0l-18 -89l-16 -89v0h-238v0l-137 -660v0h-115h-116v0z" />
    <glyph glyph-name="glyph351" horiz-adv-x="0" 
d="M-163 632v0h-108h-108v0l174 838v0h156h157v0l84 -519v0v0l313 519v0h156h157v0l-174 -838v0h-110h-111v0l129 619v0l-336 -619h-86h-86l-85 586v0z" />
    <glyph glyph-name="trademark" unicode="&#x2122;" horiz-adv-x="2048" 
d="M469 632l137 660v0h-239v0l19 89l21 89v0h702v0l-18 -89l-16 -89v0h-238v0l-137 -660v0h-115h-116v0zM1296 632v0h-108h-108v0l174 838v0h156h157v0l84 -519v0v0l313 519v0h156h157v0l-174 -838v0h-110h-111v0l129 619v0l-336 -619h-86h-86l-85 586v0z" />
    <glyph glyph-name="uni2126" unicode="&#x2126;" horiz-adv-x="1246" 
d="M599 0h-413l-74 410l74 12q33 -138 61.5 -171t114.5 -36h79q-32 61 -89.5 161t-109.5 184q-65 106 -103 211.5t-38 180.5q0 209 149.5 334.5t403.5 129.5q241 0 397.5 -129t156.5 -328q0 -79 -37.5 -185t-103.5 -214q-38 -62 -95.5 -162t-103.5 -183h79q75 -1 112 42.5
t64 164.5l73 -12l-74 -410h-412q122 338 129.5 361t30.5 97q46 148 70.5 276.5t24.5 217.5q0 162 -86.5 266.5t-224.5 108.5q-138 -4 -224 -107t-86 -265q0 -78 27.5 -222t67.5 -275q24 -77 70 -209.5t90 -248.5z" />
    <glyph glyph-name="partialdiff" unicode="&#x2202;" horiz-adv-x="1020" 
d="M81 385q0 234 139.5 416.5t317.5 182.5q48 0 96.5 -16t104.5 -50q21 190 -16.5 302t-122.5 112q-28 0 -60.5 -28.5t-51.5 -70.5q-29 -63 -49.5 -82.5t-60.5 -19.5q-60 0 -86.5 49t2.5 106q32 62 104.5 105t146.5 43q196 0 294 -155t97 -465q0 -372 -145.5 -609
t-372.5 -237q-148 0 -242.5 117t-94.5 300zM271 324q0 -114 44 -193t108 -79q108 0 184 178t76 431q0 120 -39 180t-117 60q-107 0 -181.5 -167.5t-74.5 -409.5z" />
    <glyph glyph-name="uni2206" unicode="&#x2206;" horiz-adv-x="1360" 
d="M740 1391l582 -1391h-1285zM667 1077l-446 -883h799z" />
    <glyph glyph-name="product" unicode="&#x220f;" horiz-adv-x="2039" 
d="M197 -315v65q151 17 197.5 88.5t46.5 289.5v901q3 217 -43.5 288.5t-200.5 88.5v65h1645v-65q-151 -17 -197.5 -88.5t-46.5 -288.5v-901q0 -218 46.5 -289.5t197.5 -88.5v-65h-704v65q157 17 202 87t42 291v1262h-725v-1262q0 -218 46.5 -289.5t197.5 -88.5v-65h-704z
" />
    <glyph glyph-name="summation" unicode="&#x2211;" horiz-adv-x="2039" 
d="M416 -315l491 838l-482 948h1119l46 -366l-70 -14l-17 39q-54 142 -142.5 200.5t-250.5 58.5h-403l370 -740l-451 -756h524q138 0 219 51t149 180l22 41l70 -21l-117 -459h-1077z" />
    <glyph glyph-name="minus" unicode="&#x2212;" horiz-adv-x="1196" 
d="M212 630h1030l-47 -226h-1030z" />
    <glyph glyph-name="uni2219" unicode="&#x2219;" horiz-adv-x="569" 
d="M307 856h304l-62 -300h-304z" />
    <glyph glyph-name="radical" unicode="&#x221a;" horiz-adv-x="1473" 
d="M56 438l298 194l506 -750l480 1647h382v-86h-281l-553 -1817h-74l-570 821l-145 -105z" />
    <glyph glyph-name="infinity" unicode="&#x221e;" horiz-adv-x="2039" 
d="M283 569q0 179 116.5 302t285.5 123q122 0 210.5 -60.5t175.5 -202.5q74 109 157.5 163t177.5 54q153 0 250.5 -105.5t97.5 -271.5q0 -162 -97 -269t-243 -107q-105 0 -189 56.5t-135 161.5q-106 -156 -186.5 -210t-206.5 -54q-174 0 -294 122t-120 298zM394 567
q0 -107 69 -181t169 -74q109 0 193.5 73t159.5 232q-63 113 -137.5 163.5t-180.5 50.5q-115 0 -194 -76.5t-79 -187.5zM1643 569q0 97 -59.5 156.5t-157.5 59.5q-84 0 -146 -50.5t-122 -168.5q41 -100 111.5 -154t159.5 -54q98 0 156 57t58 154z" />
    <glyph glyph-name="integral" unicode="&#x222b;" horiz-adv-x="2039" 
d="M752 -319q0 42 27.5 72.5t65.5 30.5q35 0 60 -25.5t25 -61.5l-9 -60q-1 -9 6 -15.5t19 -6.5q52 -1 69.5 87t-7.5 222q-36 191 -69 425t-45 383q-33 427 23 632t206 205q66 0 112 -42t46 -102q0 -52 -23.5 -78t-70.5 -26q-42 0 -63 19t-21 58q0 10 16 72q2 8 -5.5 14
t-20.5 6q-77 0 -80 -130.5t65 -491.5q54 -284 68 -600.5t-19 -491.5q-23 -120 -74.5 -180t-131.5 -60q-71 0 -120 42t-49 103z" />
    <glyph glyph-name="approxequal" unicode="&#x2248;" horiz-adv-x="2039" 
d="M414 275q57 100 157 169.5t188 69.5q55 0 150 -21.5t216 -60.5q68 -22 146.5 -37t123.5 -15q60 0 132 35.5t116 86.5l37 -22q-48 -115 -136 -182.5t-190 -67.5q-31 0 -105 14t-150 35q-162 44 -254.5 64.5t-130.5 20.5q-64 0 -142 -35t-127 -86zM414 626
q57 100 157 169.5t188 69.5q55 0 150 -21.5t216 -60.5q68 -22 146.5 -37t123.5 -15q60 0 132 35.5t116 86.5l37 -22q-48 -115 -136 -182.5t-190 -67.5q-31 0 -105 14t-150 35q-162 44 -254.5 64.5t-130.5 20.5q-64 0 -142 -35t-127 -86z" />
    <glyph glyph-name="notequal" unicode="&#x2260;" horiz-adv-x="2039" 
d="M410 -93l318 372h-321v135h437l236 276h-673v135h788l317 367h164l-315 -367h312v-135h-427l-236 -276h663v-135h-779l-318 -372h-166z" />
    <glyph glyph-name="lessequal" unicode="&#x2264;" horiz-adv-x="2039" 
d="M1683 1235v-135l-1063 -410l1063 -309v-135l-1266 377v135zM417 135h1266v-135h-1266v135z" />
    <glyph glyph-name="greaterequal" unicode="&#x2265;" horiz-adv-x="2039" 
d="M417 1235l1266 -477v-135l-1266 -377v135l1063 309l-1063 410v135zM417 135h1266v-135h-1266v135z" />
    <glyph glyph-name="lozenge" unicode="&#x25ca;" horiz-adv-x="1171" 
d="M530 1423h110l404 -712l-404 -711h-110l-404 711zM585 1324l-349 -613l349 -615l349 615z" />
    <glyph glyph-name="uniEFED" unicode="&#xefed;" horiz-adv-x="682" 
d="M569 1875h258l-49 -236h-258z" />
    <glyph glyph-name="uniEFEE" unicode="&#xefee;" horiz-adv-x="682" 
d="M603 1620q-144 0 -209 74t-54 223h135q-1 -76 41 -110t137 -34q109 0 163.5 32.5t78.5 111.5h135q-44 -149 -152 -223q-106 -74 -275 -74z" />
    <glyph glyph-name="uniEFEF" unicode="&#xefef;" horiz-adv-x="682" 
d="M367 1811h640l-33 -159h-640z" />
    <glyph glyph-name="uniEFF0" unicode="&#xeff0;" horiz-adv-x="682" 
d="M268 1620l257 297h313l-361 -297h-209zM735 1620l257 297h313l-361 -297h-209z" />
    <glyph glyph-name="uniEFF1" unicode="&#xeff1;" horiz-adv-x="682" 
d="M107 -276q19 90 97.5 166t189.5 110h176q-113 -60 -181.5 -124.5t-80.5 -124.5q-9 -43 11.5 -73t58.5 -30q39 0 82 10t80 27l15 -102q-60 -23 -125 -37q-63 -14 -109 -14q-109 0 -170 55q-61 54 -44 137z" />
    <glyph glyph-name="uniEFF2" unicode="&#xeff2;" horiz-adv-x="682" 
d="M339 0l-101 -111v0l60 7q82 0 123 -44t26 -116q-18 -87 -102.5 -145t-194.5 -58q-60 0 -117 14t-108 40l65 96q46 -15 86.5 -24t64.5 -9q40 0 73 23t40 57q6 30 -13 52t-51 22q-12 0 -39 -5t-46 -11l-35 41l151 171h118z" />
    <glyph glyph-name="uniEFF3" unicode="&#xeff3;" horiz-adv-x="682" 
d="M587 1548q-93 0 -144 62t-33 151q19 89 95.5 151t169.5 62t144.5 -62t32.5 -151q-18 -89 -95 -151t-170 -62v0zM611 1662q45 0 81.5 28.5t45.5 70.5t-16 70.5t-70 28.5t-82 -28.5t-46 -70.5t16.5 -70.5t70.5 -28.5v0z" />
    <glyph glyph-name="uniEFF4" unicode="&#xeff4;" horiz-adv-x="682" 
d="M472 1621l-167 299h229l94 -167v0l165 167h234l-301 -299h-127h-127z" />
    <glyph glyph-name="uniEFF5" unicode="&#xeff5;" horiz-adv-x="682" 
d="M231 1635q44 114 124.5 181t174.5 67q26 0 70 -12.5t83 -30.5q29 -13 60.5 -22.5t48.5 -9.5q34 0 67 24.5t48 60.5h130q-41 -117 -113.5 -182.5t-160.5 -65.5q-31 0 -83 12.5t-95 30.5q-33 13 -64.5 22.5t-44.5 9.5q-33 0 -66 -24.5t-49 -60.5h-130z" />
    <glyph glyph-name="uniEFF6" unicode="&#xeff6;" horiz-adv-x="682" 
d="M362 1874h258l-49 -235h-258zM764 1874h258l-49 -235h-258z" />
    <glyph glyph-name="uniEFF7" unicode="&#xeff7;" horiz-adv-x="682" 
d="M796 1919l168 -299h-229l-95 167v0l-164 -167h-234l300 299h127h127z" />
    <glyph glyph-name="uniEFF8" unicode="&#xeff8;" horiz-adv-x="682" 
d="M517 1620l-238 299h316l128 -299h-206z" />
    <glyph glyph-name="uniEFF9" unicode="&#xeff9;" horiz-adv-x="682" 
d="M483 1620l257 297h313l-361 -297h-209z" />
    <glyph glyph-name="uniF001" unicode="&#xf001;" horiz-adv-x="1251" 
d="M647 883v0l-182 -883v0h-143h-144v0l182 883v0h-160l43 205h160v0l19 91q32 158 131 234.5t272 76.5l132 -3l-48 -236h-87q-58 0 -83 -23.5t-39 -90.5l-10 -49v0h185l-43 -205h-185zM831 0l225 1088v0h143h144v0l-225 -1088v0h-143h-144v0zM1147 1482h290l-54 -262h-290z
" />
    <glyph glyph-name="uniF002" unicode="&#xf002;" horiz-adv-x="1251" 
d="M647 883v0l-182 -883v0h-143h-144v0l182 883v0h-160l43 205h160v0l19 91q32 158 131 234.5t272 76.5l132 -3l-48 -236h-87q-58 0 -83 -23.5t-39 -90.5l-10 -49v0h185l-43 -205h-185zM845 0l304 1470v0h143h144v0l-304 -1470v0h-143h-144v0z" />
    <glyph glyph-name="uniFB01" unicode="&#xfb01;" horiz-adv-x="1251" 
d="M647 883v0l-182 -883v0h-143h-144v0l182 883v0h-160l43 205h160v0l19 91q32 158 131 234.5t272 76.5l132 -3l-48 -236h-87q-58 0 -83 -23.5t-39 -90.5l-10 -49v0h185l-43 -205h-185zM831 0l225 1088v0h143h144v0l-225 -1088v0h-143h-144v0zM1147 1482h290l-54 -262h-290z
" />
  </font>
</defs>
</svg>
